<?xml version="1.0" encoding="UTF-8"?>
<svg id="Layer_1" xmlns="http://www.w3.org/2000/svg" version="1.1" viewBox="0 0 627.1 186">
  <!-- Generator: Adobe Illustrator 30.3.0, SVG Export Plug-In . SVG Version: 2.1.3 Build 182)  -->
  <defs>
    <style>
      .st0 {
        fill: #00d3ff;
      }

      .st1 {
        fill: #003276;
      }
    </style>
  </defs>
  <path class="st0" d="M260.1,60.9c0,5.1,4.2,9.3,9.3,9.3s9.3-4.2,9.3-9.3-4.2-9.3-9.3-9.3-9.3,4.2-9.3,9.3"/>
  <path class="st0" d="M291,60.9c0,5.1,4.2,9.3,9.3,9.3s9.3-4.2,9.3-9.3-4.2-9.3-9.3-9.3-9.3,4.2-9.3,9.3"/>
  <path class="st0" d="M321.8,60.9c0,5.1,4.2,9.3,9.3,9.3s9.3-4.2,9.3-9.3-4.2-9.3-9.3-9.3-9.3,4.2-9.3,9.3"/>
  <path class="st0" d="M408.4,158.7h-19c-.4,0-.7.3-.7.7v6.4c0,.4.3.7.7.7h11.4v7.3c-2.7,2.6-6.2,3.9-10.4,3.9s-5.7-.7-8-1.9c-2.3-1.3-4.2-3.1-5.4-5.4-1.3-2.3-1.9-5.1-1.9-8.2s.6-5.8,1.9-8.1c1.2-2.3,3-4.2,5.3-5.5,2.3-1.3,5-2,8-2s4.7.4,6.7,1.3c2,.8,3.9,2.1,5.7,3.9.1.1.3.2.5.2.2,0,.4-.1.5-.3l4.3-5.1c.2-.3.2-.6,0-.9-4.8-4.9-10.8-7.4-17.9-7.4s-9.1,1.1-12.7,3.1c-3.6,2.1-6.5,5-8.5,8.6-2,3.6-3,7.6-3,12.1s1,8.6,3.1,12.2c2,3.6,4.9,6.5,8.5,8.6,3.6,2.1,7.8,3.1,12.5,3.1s7.6-.7,10.9-2.2c3.3-1.4,6.1-3.5,8.3-6.3,0-.1.1-.3.1-.4v-17.7c0-.4-.3-.7-.7-.7"/>
  <path class="st0" d="M442.9,160.3h-8.4v-13.2h8.5c2.2,0,4,.6,5.3,1.9,1.4,1.3,2,2.8,2,4.8s-.6,3.6-2,4.8c-1.3,1.2-3.2,1.8-5.6,1.8M449.7,166.9c2.9-1,5.3-2.6,7.1-4.8,1.9-2.4,2.9-5.3,2.9-8.5s-.7-5.2-2-7.5c-1.4-2.2-3.3-4-5.7-5.2-2.4-1.3-5.2-1.9-8.2-1.9h-17.7c-.4,0-.7.3-.7.7v44.6c0,.4.3.7.7.7h7.8c.4,0,.7-.3.7-.7v-16.3h5.7l10.4,16.6c.1.2.4.3.6.3h8.9c.4,0,.7-.3.7-.7v-.2c0-.1,0-.3-.1-.4l-11-16.8Z"/>
  <path class="st0" d="M511.8,169.9c-1.2,2.3-3,4.2-5.2,5.6-2.2,1.4-4.8,2.1-7.8,2.1s-5.5-.7-7.7-2.1c-2.2-1.4-4-3.3-5.2-5.6-1.2-2.3-1.8-5-1.8-7.9s.6-5.6,1.8-8c1.2-2.3,2.9-4.2,5.1-5.5,2.2-1.3,4.8-2,7.7-2s5.6.7,7.8,2c2.2,1.3,3.9,3.1,5.2,5.5,1.2,2.4,1.9,5,1.9,8s-.6,5.5-1.9,7.9M511.3,141.3c-3.6-2-7.8-3.1-12.5-3.1s-8.9,1-12.5,3.1c-3.6,2-6.5,4.9-8.6,8.5-2,3.6-3.1,7.7-3.1,12.2s1,8.5,3.1,12.1c2.1,3.6,5,6.5,8.6,8.6,3.7,2.1,7.8,3.1,12.4,3.1s8.9-1.1,12.5-3.1c3.6-2.1,6.5-5,8.6-8.6,2-3.6,3.1-7.7,3.1-12.1s-1-8.6-3.1-12.2c-2.1-3.6-4.9-6.5-8.6-8.5"/>
  <path class="st0" d="M574.2,139h-7.8c-.4,0-.7.3-.7.7v28.3c0,3.1-.9,5.5-2.5,7.1-1.7,1.6-4,2.4-7,2.4s-5.3-.8-7-2.4c-1.7-1.6-2.5-4-2.5-7.1v-28.3c0-.4-.3-.7-.7-.7h-7.8c-.4,0-.7.3-.7.7v28.8c0,3.6.8,6.7,2.4,9.3,1.6,2.6,3.9,4.6,6.7,6,2.8,1.4,6.1,2,9.7,2s6.8-.7,9.6-2c2.8-1.4,5.1-3.4,6.7-6,1.6-2.6,2.4-5.7,2.4-9.3v-28.8c0-.4-.3-.7-.7-.7"/>
  <path class="st0" d="M615.9,158.8c-1.2,1.3-3.1,1.9-5.6,1.9h-7.8v-13.6h8c2.2,0,4,.7,5.3,2,1.3,1.3,2,2.9,2,4.9s-.6,3.5-1.9,4.8M625.2,146.7c-1.2-2.3-3.1-4.2-5.5-5.6-2.4-1.4-5.2-2.1-8.4-2.1h-17.3c-.4,0-.7.3-.7.7v44.6c0,.4.3.7.7.7h7.8c.4,0,.7-.3.7-.7v-15.6h8.6c3.3,0,6.2-.7,8.6-2,2.4-1.3,4.2-3.2,5.5-5.4,1.2-2.2,1.9-4.6,1.9-7.2s-.6-5.1-1.9-7.4"/>
  <path class="st1" d="M103.1,1h-20c-.3,0-.6.3-.6.6v48.7c0,.4-.3.8-.8.8H22.1c-.4,0-.8-.3-.8-.8V1.5c0-.3-.3-.6-.6-.6H.6c-.3,0-.6.3-.6.6v118.7c0,.3.3.6.6.6h20.2c.3,0,.6-.3.6-.6v-48.8c0-.4.3-.8.8-.8h59.7c.4,0,.8.3.8.8v48.8c0,.3.3.6.6.6h20c.3,0,.6-.3.6-.6V1.5c0-.3-.3-.6-.6-.6"/>
  <path class="st1" d="M204.7,99.6h-59.6c-.3,0-.6-.3-.6-.6v-27.8c0-.3.3-.6.6-.6h57.2c.3,0,.6-.3.6-.6l-.7-18.6c0-.3-.3-.6-.6-.6h-56.4c-.3,0-.6-.3-.6-.6v-28.3c0-.3.3-.6.6-.6h55c.3,0,.6-.3.6-.6l-.6-19.5c0-.3-.3-.6-.6-.6h-75.5c-.3,0-.6.3-.6.6v118.7c0,.3.3.6.6.6h81.5c.3,0,.6-.3.6-.6l-.7-19.8c0-.3-.3-.6-.6-.6"/>
  <path class="st1" d="M462.1,60.8h-31.1c-.3,0-.5-.3-.4-.6l15.4-35.4c.2-.5.9-.5,1.1,0l15.4,35.4c.1.3,0,.6-.4.6M490.1,120.6h21.6c.6,0,1-.5.7-1L458.8,1.4c-.2-.4-.5-.6-.9-.6h-22.7c-.4,0-.7.2-.9.6l-53.6,118.2c-.2.5.1,1.1.7,1.1h21.4c.3,0,.6-.2.7-.5l18.2-39.5c.4-.2.7-.4,1.1-.7h47.5c.4.3.7.4,1.1.7l18,39.5c.1.3.4.5.7.5"/>
  <path class="st1" d="M549.4,21.2c0-.3.3-.6.6-.6h28.1c14.9,0,21.6,10.1,21.6,20.2s-6.7,20.2-21.6,20.2h-28.1c-.3,0-.6-.3-.6-.6V21.2ZM549.4,119.7v-39c0-.3.3-.6.6-.6h15.3c.2,0,.4.2.6.3l34.9,40c.2,0,.4.2.6.3h24.4c.7,0,1-.8.6-1.3l-35-39.8c0-.1,0-.2.1-.3,30.8-5.9,29.6-39,29.6-39,0-26.9-22.3-39.3-42.9-39.5l-49-.2c-.5,0-1,.4-1,1v118.1c0,.5.4,1,1,1h19.4c.5,0,1-.4,1-1"/>
  <path class="st1" d="M412.7,0h-19.7c-.3,0-.6.2-.7.5l-67,144.9c-.2.4-.8.5-1,0l-30.7-52.8c-.1-.2-.4-.3-.7-.2l-47.4,15.7c-.4.1-.7-.2-.8-.5l-4.7-87.4c0-.3.2-.6.6-.6h120c.2,0,.4-.1.5-.3l9-18.3c.2-.4,0-.9-.5-.9h-149.6c-.3,0-.6.3-.6.6l7.1,132.3c0,.4.4.6.8.5l57-18.4c.2,0,.5,0,.7.2l42.1,70.4c.3.4.8.3,1,0L413.3.8c.2-.4-.1-.8-.5-.8"/>
</svg>