<?xml version="1.0" encoding="UTF-8"?>
<svg id="Layer_1" data-name="Layer 1" xmlns="http://www.w3.org/2000/svg" viewBox="0 0 98.39 119.87">
  <defs>
    <style>
      .cls-1 {
        fill: #fff;
      }
    </style>
  </defs>
  <g>
    <path class="cls-1" d="M3.29,118.28c0,.09-.04.14-.13.15-.17.03-.36.06-.57.07-.21.02-.48.03-.8.03-.22,0-.43-.04-.65-.12-.22-.07-.41-.2-.58-.37s-.3-.39-.41-.67c-.11-.28-.16-.61-.16-1.01v-.94c0-.43.06-.78.16-1.06.11-.28.25-.51.43-.67.17-.17.37-.29.59-.35s.44-.1.66-.1c.32,0,.59,0,.8.03.21.02.38.04.51.07.03,0,.06.01.08.03.02.01.03.04.03.07v.35s-.03.07-.09.07h-.03c-.1,0-.2-.02-.29-.02-.09,0-.19-.01-.29-.01s-.21,0-.33,0-.25,0-.4,0c-.16,0-.32.02-.46.07-.15.05-.28.14-.39.26-.11.12-.2.29-.27.5-.07.21-.1.47-.1.78v.94c0,.29.03.53.09.74.06.2.14.37.25.5.11.13.23.22.37.28.14.06.29.09.45.09.21,0,.39,0,.53-.01s.26-.02.34-.03v-2s0-.07.03-.1c.02-.03.05-.04.09-.04h.37s.07.01.09.04c.03.03.04.06.04.1v2.35Z"/>
    <path class="cls-1" d="M6.61,116.24c0-.4-.07-.68-.22-.85s-.38-.25-.68-.25-.53.09-.69.27-.24.45-.24.83v.06h1.83v-.06ZM7.23,116.62c0,.1-.04.15-.13.15h-2.31v.1c0,.42.08.71.24.88.16.17.4.26.72.26.2,0,.42,0,.65-.02.23-.01.42-.03.58-.06h.03s.05,0,.07.02c.02.01.03.04.03.07v.24s0,.08-.03.11c-.02.03-.06.04-.11.05-.2.04-.39.07-.59.09-.2.02-.41.03-.65.03-.2,0-.39-.03-.58-.08-.19-.05-.36-.14-.5-.27-.14-.13-.26-.3-.35-.51s-.14-.49-.14-.81v-.63c0-.51.13-.9.39-1.2s.64-.44,1.14-.44c.25,0,.47.04.66.12.19.08.35.19.47.33s.22.31.29.52c.07.2.1.43.1.67v.38Z"/>
    <path class="cls-1" d="M10.97,118.35s-.01.07-.04.1c-.03.03-.06.04-.1.04h-.33s-.07-.01-.1-.04-.04-.06-.04-.1v-2.3c0-.18-.01-.32-.05-.44-.03-.12-.07-.22-.14-.29-.06-.07-.14-.12-.24-.15-.1-.03-.21-.05-.34-.05-.15,0-.3.03-.46.08-.15.05-.31.12-.48.2v2.95s-.01.07-.04.1c-.03.03-.06.04-.1.04h-.34s-.07-.01-.09-.04c-.02-.03-.04-.06-.04-.1v-3.56s.01-.07.04-.1c.03-.03.06-.04.09-.04h.35s.07.01.09.04c.03.03.04.06.04.1v.13c.19-.11.37-.19.54-.24.16-.05.35-.08.56-.08.42,0,.72.13.92.38.19.25.29.61.29,1.08v2.3h0Z"/>
    <path class="cls-1" d="M14.22,116.24c0-.4-.07-.68-.22-.85s-.38-.25-.68-.25-.53.09-.69.27-.24.45-.24.83v.06h1.83v-.06h0ZM14.84,116.62c0,.1-.04.15-.13.15h-2.31v.1c0,.42.08.71.24.88.16.17.4.26.72.26.2,0,.42,0,.65-.02.23-.01.42-.03.58-.06h.03s.05,0,.07.02c.02.01.03.04.03.07v.24s0,.08-.03.11c-.02.03-.06.04-.11.05-.2.04-.4.07-.59.09-.2.02-.41.03-.65.03-.2,0-.39-.03-.58-.08-.19-.05-.36-.14-.5-.27s-.26-.3-.35-.51-.14-.49-.14-.81v-.63c0-.51.13-.9.39-1.2s.64-.44,1.14-.44c.25,0,.47.04.66.12.19.08.35.19.47.33s.22.31.29.52c.07.2.1.43.1.67v.38Z"/>
    <path class="cls-1" d="M17.37,115.02c0,.08-.05.12-.14.12-.16,0-.32.02-.47.07s-.31.12-.49.23v2.93s-.01.07-.04.1c-.03.03-.06.04-.1.04h-.34s-.07-.01-.09-.04c-.03-.03-.04-.06-.04-.1v-3.56s.01-.07.04-.1c.02-.03.06-.04.09-.04h.32s.07.01.09.04.04.06.04.1v.14c.17-.12.34-.21.5-.26s.32-.07.47-.07c.1,0,.14.04.14.13v.29h0Z"/>
    <path class="cls-1" d="M19.88,116.64h-.51c-.21,0-.38.01-.52.04-.14.03-.25.07-.32.12-.08.05-.14.12-.16.21-.03.09-.05.19-.05.32v.08c0,.25.06.42.17.51s.27.13.47.13c.16,0,.31-.02.46-.07.15-.05.3-.12.47-.21v-1.12h0ZM20.49,118.35s-.01.07-.04.1c-.03.03-.06.04-.1.04h-.32s-.07-.01-.1-.04c-.03-.03-.04-.06-.04-.1v-.15c-.17.1-.34.18-.51.24s-.36.1-.55.1c-.14,0-.29-.02-.43-.05s-.26-.1-.36-.19c-.1-.09-.19-.21-.25-.35-.06-.14-.09-.33-.09-.55v-.08c0-.19.03-.35.08-.49s.15-.26.29-.36c.13-.09.3-.17.51-.22.21-.05.47-.07.78-.07h.51v-.28c0-.29-.06-.5-.17-.62s-.3-.17-.58-.17c-.22,0-.43,0-.59.02-.17.01-.32.02-.46.04h-.03s-.06,0-.09-.02c-.02-.01-.04-.04-.04-.09v-.24c0-.07.05-.12.14-.13.14-.02.3-.04.47-.06s.37-.03.6-.03c.48,0,.82.12,1.03.35s.31.56.31.96v2.44h0Z"/>
    <path class="cls-1" d="M22.1,118.35s0,.07-.03.1c-.02.03-.05.04-.09.04h-.36s-.07-.01-.09-.04-.03-.06-.03-.1v-4.98s0-.07.03-.09.05-.04.09-.04h.36s.07.01.09.04c.02.03.03.06.03.09v4.98Z"/>
    <path class="cls-1" d="M27.78,118.41s0,.04-.02.06c0,.02-.03.03-.05.04-.07,0-.15.01-.26.02-.11,0-.23,0-.36,0-.13,0-.25,0-.38,0h-.35c-.49,0-.86-.1-1.1-.3s-.37-.53-.37-1v-2.69c0-.47.12-.8.37-1,.25-.2.61-.3,1.1-.3h.72c.13.01.24.02.35.03h.28s.04.03.05.05.02.04.02.06v.35c0,.06-.02.08-.07.08h-1.33c-.18,0-.33.01-.44.04-.11.03-.2.07-.26.13s-.1.14-.12.23c-.02.09-.03.21-.03.34v.97h2.12s.07.01.1.04c.03.03.04.06.04.1v.27s-.01.07-.04.1c-.03.03-.06.04-.1.04h-2.12v1.17c0,.14,0,.25.03.34.02.09.06.16.12.22.06.06.14.1.26.13.11.03.26.04.44.04h1.33c.05,0,.07.03.07.08v.36h0Z"/>
    <path class="cls-1" d="M31.54,118.35s-.01.07-.04.1c-.03.03-.06.04-.1.04h-.33s-.07-.01-.1-.04-.04-.06-.04-.1v-2.3c0-.18-.01-.32-.05-.44-.03-.12-.07-.22-.14-.29-.06-.07-.14-.12-.24-.15s-.21-.05-.34-.05c-.15,0-.3.03-.46.08-.15.05-.31.12-.48.2v2.95s-.01.07-.04.1c-.03.03-.06.04-.1.04h-.34s-.07-.01-.09-.04-.04-.06-.04-.1v-3.56s.01-.07.04-.1c.02-.03.06-.04.09-.04h.35s.07.01.09.04.04.06.04.1v.13c.19-.11.37-.19.54-.24.16-.05.35-.08.56-.08.42,0,.72.13.92.38.19.25.29.61.29,1.08v2.3h0Z"/>
    <path class="cls-1" d="M34.36,118.39c0,.07-.04.1-.13.12-.07,0-.14.02-.23.02s-.16,0-.22,0c-.16,0-.3-.01-.42-.04-.12-.03-.22-.07-.29-.14s-.14-.16-.17-.29c-.04-.12-.06-.28-.06-.47v-2.44l-.67-.07c-.09,0-.13-.05-.13-.13v-.19c0-.08.04-.13.13-.13h.67v-.69c0-.08.04-.13.13-.14l.36-.06h.02s.05,0,.07.03c.02.02.03.05.03.09v.76h.75s.07.01.1.04.04.06.04.1v.24s-.01.07-.04.1c-.03.03-.06.04-.1.04h-.75v2.44c0,.19.03.31.08.36s.15.07.29.07h.39c.1,0,.14.03.14.1v.24h0Z"/>
    <path class="cls-1" d="M37.32,116.24c0-.4-.07-.68-.22-.85s-.38-.25-.68-.25-.53.09-.69.27c-.16.18-.24.45-.24.83v.06h1.83v-.06ZM37.93,116.62c0,.1-.04.15-.13.15h-2.31v.1c0,.42.08.71.24.88.16.17.4.26.72.26.2,0,.42,0,.65-.02.23-.01.42-.03.58-.06h.03s.05,0,.07.02c.02.01.03.04.03.07v.24s0,.08-.03.11c-.02.03-.06.04-.11.05-.2.04-.39.07-.59.09-.2.02-.41.03-.65.03-.2,0-.39-.03-.58-.08-.19-.05-.36-.14-.5-.27s-.26-.3-.35-.51-.14-.49-.14-.81v-.63c0-.51.13-.9.39-1.2s.64-.44,1.14-.44c.25,0,.47.04.66.12.19.08.35.19.47.33s.22.31.29.52c.07.2.1.43.1.67v.38Z"/>
    <path class="cls-1" d="M40.47,115.02c0,.08-.05.12-.14.12-.16,0-.32.02-.47.07s-.31.12-.49.23v2.93s-.01.07-.04.1c-.03.03-.06.04-.1.04h-.34s-.07-.01-.09-.04c-.02-.03-.04-.06-.04-.1v-3.56s.01-.07.04-.1c.02-.03.06-.04.09-.04h.32s.07.01.09.04c.02.03.04.06.04.1v.14c.17-.12.34-.21.5-.26s.32-.07.47-.07c.1,0,.14.04.14.13v.29h0Z"/>
    <path class="cls-1" d="M43.14,118.39c0,.07-.04.1-.13.12-.07,0-.14.02-.23.02s-.15,0-.22,0c-.16,0-.3-.01-.42-.04-.12-.03-.22-.07-.29-.14s-.14-.16-.17-.29c-.04-.12-.06-.28-.06-.47v-2.44l-.67-.07c-.09,0-.13-.05-.13-.13v-.19c0-.08.04-.13.13-.13h.67v-.69c0-.08.04-.13.13-.14l.36-.06h.02s.05,0,.07.03c.02.02.03.05.03.09v.76h.75s.07.01.1.04.04.06.04.1v.24s-.01.07-.04.1c-.03.03-.06.04-.1.04h-.75v2.44c0,.19.03.31.08.36s.15.07.29.07h.39c.1,0,.14.03.14.1v.24Z"/>
    <path class="cls-1" d="M45.82,116.64h-.51c-.21,0-.38.01-.52.04-.14.03-.25.07-.32.12-.08.05-.14.12-.17.21-.03.09-.05.19-.05.32v.08c0,.25.06.42.17.51s.27.13.47.13c.16,0,.31-.02.46-.07.15-.05.3-.12.47-.21v-1.12h0ZM46.43,118.35s-.01.07-.04.1c-.03.03-.06.04-.1.04h-.32s-.07-.01-.1-.04-.04-.06-.04-.1v-.15c-.17.1-.34.18-.51.24-.17.07-.36.1-.55.1-.15,0-.29-.02-.43-.05s-.26-.1-.36-.19c-.1-.09-.19-.21-.25-.35s-.09-.33-.09-.55v-.08c0-.19.03-.35.08-.49s.15-.26.29-.36c.13-.09.3-.17.51-.22s.47-.07.78-.07h.51v-.28c0-.29-.06-.5-.17-.62s-.3-.17-.58-.17c-.22,0-.43,0-.59.02-.17.01-.32.02-.46.04h-.03s-.06,0-.09-.02c-.02-.01-.04-.04-.04-.09v-.24c0-.07.05-.12.14-.13.14-.02.3-.04.47-.06s.37-.03.6-.03c.48,0,.82.12,1.03.35s.31.56.31.96v2.44h0Z"/>
    <path class="cls-1" d="M48.06,118.35s-.01.07-.04.1c-.03.03-.06.04-.1.04h-.33s-.07-.01-.1-.04-.04-.06-.04-.1v-3.56s.01-.07.04-.1c.03-.03.06-.04.1-.04h.33s.07.01.1.04.04.06.04.1v3.56ZM48.07,113.9s-.01.07-.04.1c-.03.03-.06.04-.1.04h-.35s-.07-.01-.1-.04-.04-.06-.04-.1v-.56s.01-.07.04-.1c.03-.03.06-.04.1-.04h.35s.07.01.1.04.04.06.04.1v.56Z"/>
    <path class="cls-1" d="M51.99,118.35s-.01.07-.04.1c-.03.03-.06.04-.1.04h-.33s-.07-.01-.1-.04-.04-.06-.04-.1v-2.3c0-.18-.01-.32-.05-.44-.03-.12-.07-.22-.14-.29s-.14-.12-.24-.15-.21-.05-.34-.05c-.15,0-.3.03-.46.08-.15.05-.31.12-.48.2v2.95s-.01.07-.04.1c-.03.03-.06.04-.1.04h-.34s-.07-.01-.09-.04c-.02-.03-.04-.06-.04-.1v-3.56s.01-.07.04-.1c.03-.03.06-.04.09-.04h.35s.07.01.09.04c.03.03.04.06.04.1v.13c.19-.11.37-.19.54-.24.16-.05.35-.08.56-.08.42,0,.72.13.92.38.19.25.29.61.29,1.08v2.3h0Z"/>
    <path class="cls-1" d="M57.5,118.35s-.01.07-.04.1c-.03.03-.06.04-.1.04h-.33s-.07-.01-.1-.04-.04-.06-.04-.1v-2.47c0-.14-.01-.27-.05-.36s-.07-.17-.13-.23c-.06-.06-.12-.09-.2-.12s-.16-.04-.25-.04c-.13,0-.26.02-.4.06-.14.04-.28.08-.41.13.04.15.06.34.06.55v2.49s0,.07-.03.1c-.02.03-.05.04-.09.04h-.36s-.07-.01-.09-.04c-.02-.03-.03-.06-.03-.1v-2.49c0-.15,0-.28-.03-.37-.02-.09-.06-.17-.1-.22-.05-.05-.1-.09-.17-.11s-.14-.03-.23-.03c-.13,0-.26.03-.4.08-.14.05-.29.12-.44.19v2.95s-.01.07-.03.1c-.02.03-.05.04-.09.04h-.36s-.07-.01-.09-.04c-.02-.03-.03-.06-.03-.1v-3.56s.01-.07.04-.1c.02-.03.06-.04.09-.04h.35s.07.01.09.04c.02.03.04.06.04.1v.13c.14-.09.29-.16.46-.23.17-.07.35-.1.55-.1.14,0,.28.02.39.07.11.05.22.12.3.22.19-.09.39-.16.58-.22s.38-.07.56-.07c.15,0,.3.02.44.06s.25.11.36.22c.1.1.18.23.24.4s.09.37.09.61v2.48Z"/>
    <path class="cls-1" d="M60.76,116.24c0-.4-.07-.68-.22-.85-.15-.17-.37-.25-.68-.25s-.53.09-.69.27c-.16.18-.24.45-.24.83v.06h1.83v-.06ZM61.37,116.62c0,.1-.04.15-.13.15h-2.31v.1c0,.42.08.71.24.88.16.17.4.26.72.26.2,0,.42,0,.65-.02.23-.01.42-.03.58-.06h.03s.05,0,.07.02c.02.01.03.04.03.07v.24s0,.08-.03.11c-.02.03-.06.04-.11.05-.2.04-.39.07-.59.09-.2.02-.41.03-.65.03-.2,0-.39-.03-.58-.08-.19-.05-.36-.14-.5-.27s-.26-.3-.35-.51-.14-.49-.14-.81v-.63c0-.51.13-.9.39-1.2s.64-.44,1.14-.44c.25,0,.48.04.66.12.19.08.35.19.47.33.13.14.22.31.29.52.07.2.1.43.1.67v.38h0Z"/>
    <path class="cls-1" d="M65.11,118.35s-.01.07-.04.1c-.03.03-.06.04-.1.04h-.33s-.07-.01-.1-.04c-.03-.03-.04-.06-.04-.1v-2.3c0-.18-.01-.32-.05-.44-.03-.12-.07-.22-.14-.29-.06-.07-.14-.12-.24-.15-.1-.03-.21-.05-.34-.05-.15,0-.3.03-.46.08-.15.05-.32.12-.48.2v2.95s-.01.07-.04.1c-.03.03-.06.04-.1.04h-.34s-.07-.01-.09-.04c-.02-.03-.04-.06-.04-.1v-3.56s.01-.07.04-.1c.03-.03.06-.04.09-.04h.35s.07.01.09.04.04.06.04.1v.13c.19-.11.37-.19.54-.24.16-.05.35-.08.56-.08.42,0,.72.13.92.38s.29.61.29,1.08v2.3h0Z"/>
    <path class="cls-1" d="M67.93,118.39c0,.07-.04.1-.13.12-.07,0-.14.02-.23.02-.08,0-.15,0-.22,0-.16,0-.3-.01-.42-.04-.12-.03-.22-.07-.29-.14-.07-.07-.14-.16-.17-.29-.04-.12-.06-.28-.06-.47v-2.44l-.67-.07c-.09,0-.13-.05-.13-.13v-.19c0-.08.04-.13.13-.13h.67v-.69c0-.08.04-.13.13-.14l.36-.06h.02s.05,0,.07.03c.02.02.03.05.03.09v.76h.75s.07.01.1.04c.03.03.04.06.04.1v.24s-.01.07-.04.1c-.03.03-.06.04-.1.04h-.75v2.44c0,.19.03.31.08.36s.15.07.29.07h.39c.1,0,.14.03.14.1v.24h0Z"/>
    <path class="cls-1" d="M72.13,113.93c-.02-.08-.07-.13-.13-.13-.07,0-.12.04-.14.13l-.63,2.3h1.53l-.63-2.3ZM73.98,118.38c0,.07-.04.11-.12.11h-.41s-.06,0-.07-.03c-.02-.02-.03-.05-.04-.07l-.45-1.61h-1.79l-.44,1.61s-.03.05-.05.07c-.02.02-.05.03-.07.03h-.41c-.08,0-.12-.04-.12-.11,0-.02,0-.04,0-.05l1.28-4.55c.03-.11.07-.2.12-.26.05-.07.11-.12.18-.16s.13-.07.21-.08c.07-.01.14-.02.21-.02s.13,0,.2.02c.07.01.14.04.2.08.07.04.12.09.18.16.05.07.09.15.12.26l1.28,4.56s0,.02,0,.05"/>
    <path class="cls-1" d="M77.49,118.35s-.01.07-.04.1c-.02.03-.06.04-.09.04h-.35s-.07-.01-.09-.04c-.02-.03-.04-.06-.04-.1v-.13c-.19.11-.37.19-.54.24-.17.05-.35.08-.56.08-.42,0-.72-.13-.92-.38s-.29-.61-.29-1.08v-2.3s.01-.07.04-.1c.03-.03.06-.04.1-.04h.33s.07.01.1.04c.03.03.04.06.04.1v2.3c0,.18.01.33.05.44.03.12.07.22.14.29.06.07.14.12.23.15s.21.05.34.05c.14,0,.3-.02.45-.07s.31-.12.48-.2v-2.96s.01-.07.04-.1c.03-.03.06-.04.1-.04h.34s.07.01.09.04c.03.03.04.06.04.1v3.56h0Z"/>
    <path class="cls-1" d="M80.45,118.39c0,.07-.04.1-.13.12-.07,0-.14.02-.23.02-.08,0-.16,0-.22,0-.16,0-.3-.01-.42-.04-.12-.03-.22-.07-.29-.14-.07-.07-.14-.16-.17-.29-.04-.12-.06-.28-.06-.47v-2.44l-.67-.07c-.09,0-.13-.05-.13-.13v-.19c0-.08.04-.13.13-.13h.67v-.69c0-.08.04-.13.13-.14l.36-.06h.02s.05,0,.07.03c.02.02.03.05.03.09v.76h.75s.07.01.1.04c.03.03.04.06.04.1v.24s-.01.07-.04.1c-.03.03-.06.04-.1.04h-.75v2.44c0,.19.03.31.08.36s.15.07.29.07h.39c.1,0,.14.03.14.1v.24h0Z"/>
    <path class="cls-1" d="M84,118.35s-.01.07-.04.1c-.03.03-.06.04-.1.04h-.33s-.07-.01-.1-.04c-.03-.03-.04-.06-.04-.1v-2.3c0-.35-.07-.59-.2-.72-.13-.13-.31-.2-.54-.2-.06,0-.12,0-.2,0-.07,0-.16.02-.24.03-.09.01-.18.04-.27.06-.09.03-.17.06-.24.09v3.02s-.01.07-.04.1c-.03.03-.06.04-.1.04h-.34s-.07-.01-.09-.04c-.02-.03-.04-.06-.04-.1v-4.97s.01-.07.04-.1c.02-.03.06-.04.09-.04h.35s.07.01.09.04.04.06.04.1v1.44c.16-.07.35-.13.54-.16s.36-.05.51-.05c.18,0,.35.03.51.08s.29.14.39.26c.11.12.2.27.26.45s.09.4.09.66v2.3Z"/>
    <path class="cls-1" d="M87.29,116.31c0-.36-.07-.64-.22-.85-.15-.21-.38-.31-.71-.31s-.56.1-.71.31c-.14.21-.22.49-.22.86v.53c0,.36.07.64.22.85s.38.31.71.31.56-.1.71-.31c.15-.21.22-.49.22-.86v-.53h0ZM87.89,116.84c0,.26-.03.49-.1.7s-.16.39-.29.54c-.13.15-.29.27-.48.35-.19.08-.42.12-.67.12s-.48-.04-.67-.12c-.19-.08-.35-.2-.48-.35-.13-.15-.22-.33-.29-.54s-.1-.44-.1-.7v-.53c0-.26.03-.49.1-.7.07-.21.16-.39.29-.54s.29-.26.48-.35c.19-.08.41-.12.67-.12s.48.04.67.12c.19.08.36.2.48.35.13.15.22.33.29.54s.1.44.1.7v.53Z"/>
    <path class="cls-1" d="M90.42,115.02c0,.08-.05.12-.14.12-.16,0-.32.02-.47.07s-.31.12-.49.23v2.93s-.01.07-.04.1c-.03.03-.06.04-.1.04h-.34s-.07-.01-.09-.04-.04-.06-.04-.1v-3.56s.01-.07.04-.1c.02-.03.06-.04.09-.04h.32s.07.01.09.04c.02.03.04.06.04.1v.14c.17-.12.34-.21.5-.26.16-.05.32-.07.47-.07.1,0,.14.04.14.13v.29h0Z"/>
    <path class="cls-1" d="M91.76,118.35s-.01.07-.04.1c-.03.03-.06.04-.1.04h-.33s-.07-.01-.1-.04c-.03-.03-.04-.06-.04-.1v-3.56s.01-.07.04-.1c.03-.03.06-.04.1-.04h.33s.07.01.1.04c.03.03.04.06.04.1v3.56ZM91.77,113.9s-.01.07-.04.1c-.03.03-.06.04-.1.04h-.35s-.07-.01-.1-.04c-.03-.03-.04-.06-.04-.1v-.56s.01-.07.04-.1c.03-.03.06-.04.1-.04h.35s.07.01.1.04c.03.03.04.06.04.1v.56Z"/>
    <path class="cls-1" d="M94.8,118.39c0,.07-.04.1-.13.12-.07,0-.14.02-.23.02-.08,0-.15,0-.22,0-.16,0-.3-.01-.42-.04-.12-.03-.22-.07-.29-.14-.07-.07-.14-.16-.17-.29-.04-.12-.06-.28-.06-.47v-2.44l-.67-.07c-.09,0-.13-.05-.13-.13v-.19c0-.08.04-.13.13-.13h.67v-.69c0-.08.04-.13.13-.14l.36-.06h.02s.05,0,.07.03c.02.02.03.05.03.09v.76h.75s.07.01.1.04c.03.03.04.06.04.1v.24s-.01.07-.04.1c-.03.03-.06.04-.1.04h-.75v2.44c0,.19.03.31.08.36s.15.07.29.07h.39c.1,0,.14.03.14.1v.24h0Z"/>
    <path class="cls-1" d="M98.39,114.77s0,.04,0,.05l-1.14,4.03c-.06.19-.11.35-.18.48-.06.13-.14.24-.24.32-.1.08-.22.14-.35.18s-.3.06-.5.06c-.1,0-.2,0-.31-.02-.11,0-.2-.03-.27-.05-.04,0-.07-.02-.1-.03s-.04-.04-.04-.08v-.26c0-.07.04-.11.13-.11h.02c.08,0,.18.02.31.03s.23.01.31.01c.1,0,.18,0,.26-.02s.14-.05.19-.09c.05-.04.1-.1.14-.18.04-.08.07-.18.1-.3l.07-.29h-.1c-.05,0-.1,0-.15-.01s-.09-.03-.14-.06c-.04-.03-.08-.08-.12-.14-.04-.07-.07-.15-.1-.26l-.92-3.19s0-.03,0-.05c0-.08.04-.12.13-.12h.38s.05.01.07.04c.02.02.04.05.05.07l.81,3.03c.02.07.04.11.06.13.02.01.05.02.07.02h.11l.84-3.19s.02-.05.05-.07.05-.03.08-.03h.39c.08,0,.12.03.12.11"/>
    <g>
      <path class="cls-1" d="M11.83,109.54h-.38c-.06,0-.11.02-.16.06-.05.04-.07.09-.07.16v.53c0,.05.02.1.07.14.05.04.1.07.16.07h.38c.06,0,.11-.02.15-.07.05-.04.07-.09.07-.14v-.53c0-.07-.02-.12-.07-.16-.05-.04-.1-.06-.15-.06Z"/>
      <path class="cls-1" d="M10.23,109.54h-.38c-.07,0-.12.02-.16.06-.04.04-.07.09-.07.16v.53c0,.05.02.1.07.14.04.04.09.07.16.07h.38c.06,0,.11-.02.15-.07.05-.04.07-.09.07-.14v-.53c0-.07-.02-.12-.07-.16-.04-.04-.09-.06-.16-.06Z"/>
      <path class="cls-1" d="M14.87,102.96h.42c.07,0,.12-.02.16-.06.04-.04.07-.09.07-.15v-.53c0-.07-.02-.12-.07-.16-.04-.04-.09-.06-.15-.06h-.43c-.06,0-.11.02-.15.06-.05.04-.07.09-.07.16v.53c0,.06.02.11.07.15.04.04.09.06.16.06Z"/>
      <path class="cls-1" d="M16.69,104.19c-.18-.05-.39-.09-.65-.11s-.53-.03-.8-.03c-.7,0-1.25.19-1.65.56-.4.37-.6.89-.6,1.56v.24c0,.34.04.62.12.84.08.22.18.4.31.54h-1.27c-.06,0-.13,0-.21,0s-.15-.02-.23-.03c-.07-.02-.14-.04-.21-.07-.06-.03-.1-.07-.12-.12v-2.71c0-.05-.02-.1-.05-.13-.04-.04-.08-.06-.13-.06h-.45c-.05,0-.09.02-.13.06s-.05.08-.05.13v2.59c0,.08-.02.15-.07.2-.05.05-.11.08-.18.11-.07.02-.14.04-.22.05-.08,0-.15,0-.22,0h-4.8c-.21,0-.37-.04-.5-.11-.12-.07-.19-.24-.19-.51v-2.77c0-.05,0-.09-.02-.12s-.06-.05-.12-.07c-.07-.02-.15-.04-.25-.06-.1-.01-.2-.03-.31-.04-.11-.01-.22-.02-.33-.03s-.21,0-.29,0c-.37,0-.71.04-1.02.12-.31.08-.58.21-.8.38s-.4.4-.52.67c-.12.28-.19.61-.19,1v.26c0,.64.16,1.12.49,1.46.32.34.79.51,1.39.51h.09c.27,0,.52-.03.75-.09.23-.06.4-.17.51-.31.1.21.25.36.45.44.2.08.44.13.73.13h4.79c.18,0,.38-.02.61-.07s.42-.13.58-.26c.15.13.34.22.57.26s.45.07.65.07h2.87c.26,0,.51,0,.77,0,.25,0,.51-.02.79-.04.14-.01.21-.07.22-.19,0-.1.01-.21.02-.33,0-.12,0-.24.01-.37,0-.13,0-.26,0-.38v-2.96c0-.05,0-.09-.03-.12-.01-.03-.06-.05-.12-.06ZM3.58,107.12c0,.1-.03.19-.08.26s-.12.12-.21.16c-.08.04-.18.07-.28.08-.1,0-.21.01-.3.01h-.19c-.42,0-.72-.11-.9-.33s-.26-.53-.26-.92v-.21c0-.26.04-.48.12-.65.08-.17.19-.31.33-.42s.31-.17.5-.21c.2-.04.41-.06.65-.06.08,0,.17,0,.27,0s.21.02.34.03v2.24h0ZM16.03,107.77c-.14.01-.29.02-.47.02-.17,0-.34,0-.49,0-.43,0-.75-.12-.96-.36-.21-.24-.31-.59-.31-1.04v-.22c0-.45.12-.79.35-1.01s.57-.35,1.02-.35c.17,0,.32,0,.46,0s.27.02.4.04v2.9Z"/>
      <path class="cls-1" d="M23.01,103.36h.38c.06,0,.11-.02.15-.06.05-.04.07-.09.07-.15v-.53c0-.07-.02-.12-.07-.16-.04-.04-.1-.06-.16-.06h-.38c-.07,0-.12.02-.16.06-.04.04-.07.09-.07.16v.53c0,.06.02.11.07.15.04.04.09.06.16.06Z"/>
      <path class="cls-1" d="M24.61,103.36h.38c.06,0,.11-.02.15-.06.05-.04.07-.09.07-.15v-.53c0-.07-.02-.12-.07-.16-.05-.04-.1-.06-.15-.06h-.38c-.06,0-.11.02-.16.06s-.07.09-.07.16v.53c0,.06.02.11.07.15.05.04.1.06.16.06Z"/>
      <path class="cls-1" d="M30.03,101.22h-.48c-.05,0-.09.02-.13.06-.04.04-.05.08-.05.13v6.01c0,.17-.02.27-.07.3s-.17.05-.36.05h-.86c-.06,0-.13,0-.21,0s-.15-.02-.23-.03c-.07-.02-.14-.04-.21-.07-.06-.03-.1-.07-.12-.12v-6.13c0-.05-.01-.1-.05-.13-.03-.04-.07-.06-.13-.06h-.48c-.05,0-.1.02-.13.06-.04.04-.06.08-.06.13v6c0,.08-.02.15-.07.2-.05.05-.11.08-.18.11-.07.02-.14.04-.22.05-.08,0-.15,0-.22,0h-.59c-.06,0-.13,0-.21,0s-.15-.02-.23-.03c-.07-.02-.14-.04-.21-.07-.06-.03-.1-.07-.12-.12v-2.71c0-.05-.02-.1-.05-.13-.04-.04-.08-.06-.13-.06h-.45c-.05,0-.09.02-.13.06-.04.04-.05.08-.05.13v2.59c0,.08-.02.15-.07.2-.05.05-.11.08-.18.11-.07.02-.14.04-.22.05-.08,0-.15,0-.22,0h-3.37v-2.95c0-.05-.01-.1-.05-.13-.03-.04-.07-.06-.12-.06h-.48c-.05,0-.09.02-.13.06s-.05.08-.05.13v4.37c0,.22-.01.39-.05.52-.03.13-.09.22-.18.29-.08.07-.2.11-.33.13s-.31.03-.53.03h-.21c-.11,0-.16.05-.16.14v.43s0,.08.03.1.06.04.13.06.15.02.26.03.18,0,.21,0c.38,0,.68-.05.91-.14.23-.09.41-.25.54-.48.07-.13.12-.29.14-.46.02-.18.04-.37.04-.58v-.63h3.26c.18,0,.38-.02.61-.07s.42-.13.58-.26c.15.13.34.22.57.26s.45.07.65.07h.49c.18,0,.38-.02.61-.07s.42-.13.58-.26c.07.07.16.12.26.16.1.04.21.07.31.1s.22.04.33.05c.11,0,.22.01.31.01h.57c.11,0,.23,0,.36,0,.13,0,.25,0,.36-.02s.22-.02.32-.03c.1,0,.17-.02.22-.05.08-.03.13-.07.15-.12s.05-.1.06-.17c.01-.08.02-.17.03-.27,0-.1.01-.2.01-.3,0-.1,0-.21,0-.3v-5.96c0-.05-.01-.1-.05-.13-.02-.04-.06-.06-.11-.06Z"/>
      <path class="cls-1" d="M35.07,102.97h.38c.06,0,.11-.02.15-.06.05-.04.07-.09.07-.15v-.53c0-.07-.02-.12-.07-.16-.04-.04-.09-.06-.16-.06h-.38c-.07,0-.12.02-.16.06-.04.04-.07.09-.07.16v.53c0,.06.02.11.07.15.04.04.09.06.16.06Z"/>
      <path class="cls-1" d="M36.67,102.97h.38c.06,0,.11-.02.15-.06.05-.04.07-.09.07-.15v-.53c0-.07-.02-.12-.07-.16-.05-.04-.1-.06-.15-.06h-.38c-.06,0-.11.02-.16.06-.05.04-.07.09-.07.16v.53c0,.06.02.11.07.15.05.04.1.06.16.06Z"/>
      <path class="cls-1" d="M48.04,104.1c-.65,0-1.15.18-1.5.54-.35.36-.52.88-.52,1.56v.95c0,.11,0,.21-.03.29s-.06.14-.11.18c-.06.04-.12.08-.19.1-.07.03-.14.04-.22.05-.07,0-.13,0-.18,0h-6.76c-.21,0-.37-.04-.5-.11-.12-.07-.19-.24-.19-.51v-2.77c0-.05,0-.09-.02-.12-.01-.03-.06-.05-.12-.07-.07-.02-.15-.04-.25-.06-.1-.01-.2-.03-.31-.04-.11-.01-.22-.02-.33-.03s-.21,0-.29,0c-.37,0-.71.04-1.02.12-.31.08-.58.21-.8.38-.22.17-.4.4-.52.67-.12.28-.19.61-.19,1v.26c0,.64.16,1.12.49,1.46s.79.51,1.39.51h.09c.27,0,.52-.03.76-.09.23-.06.4-.17.51-.31.1.21.25.36.45.44.2.08.44.13.73.13h6.72c.27,0,.52-.03.75-.1s.4-.19.51-.37c.16.21.38.36.66.47.28.1.6.15.96.15.7,0,1.21-.18,1.52-.53s.47-.87.47-1.55v-.51c0-.68-.16-1.2-.5-1.56-.33-.36-.82-.53-1.47-.53ZM37.04,107.12c0,.1-.03.19-.08.26s-.12.12-.21.16c-.08.04-.18.07-.28.08s-.21.02-.3.02h-.19c-.42,0-.72-.11-.9-.33s-.26-.53-.26-.92v-.21c0-.26.04-.48.12-.65.08-.17.19-.31.33-.42.14-.1.31-.17.5-.21.2-.04.41-.06.65-.06.08,0,.17,0,.27,0s.21.02.34.03v2.24h0ZM49.19,106.64c0,.49-.09.83-.26,1.04-.18.21-.48.31-.91.31-.3,0-.56-.05-.75-.15s-.32-.3-.39-.58c-.03-.15-.04-.33-.04-.54v-.43c0-.45.09-.8.28-1.04.19-.24.49-.36.92-.36s.72.12.89.36.26.59.26,1.03v.37Z"/>
      <path class="cls-1" d="M62.72,101.22h-.48c-.05,0-.1.02-.13.06-.04.04-.05.08-.05.13v6.01c0,.17-.02.27-.07.3-.05.03-.17.05-.36.05h-1.95c.1-.07.19-.16.27-.28.08-.12.15-.26.21-.4.06-.15.1-.3.14-.47.03-.16.05-.33.05-.48v-.19c0-.34-.05-.62-.16-.87-.11-.24-.26-.44-.45-.6s-.43-.27-.7-.34c-.27-.07-.57-.11-.88-.11-.2,0-.39.01-.58.05-.2.03-.38.08-.57.13-.18.06-.35.13-.5.21-.15.08-.29.17-.39.27-.1.08-.16.17-.16.26v.29s0,.06,0,.09,0,.06.02.08l.92,2.37h-3.85c-.1,0-.2,0-.28-.02s-.15-.04-.21-.08c-.06-.04-.1-.1-.13-.17-.03-.07-.04-.18-.04-.31v-5.78c0-.05-.01-.1-.05-.14s-.07-.06-.13-.06h-.48c-.05,0-.1.02-.13.06-.04.04-.06.08-.06.14v5.98c0,.25.03.45.08.61s.14.29.25.38c.11.09.24.16.4.2.15.04.34.06.55.06h8.56c.11,0,.23,0,.36,0,.13,0,.25,0,.36-.02s.22-.02.32-.03c.1,0,.17-.02.22-.05.08-.03.13-.07.15-.12s.05-.1.06-.17c.01-.08.02-.17.03-.27s0-.2.01-.3,0-.21,0-.3v-5.96c0-.05-.01-.1-.05-.13-.05-.04-.09-.06-.14-.06ZM59.53,106.16c0,.4-.1.75-.29,1.06-.19.3-.46.5-.79.57h-.72l-1-2.58c.24-.16.5-.27.76-.32s.49-.07.65-.07c.43,0,.77.1,1.01.29.25.19.37.51.37.94v.11h0Z"/>
      <path class="cls-1" d="M65.21,101.21h-.48c-.05,0-.1.02-.13.06-.04.04-.06.08-.06.14v7.02c0,.05.02.1.06.14.03.04.08.06.13.06h.48c.05,0,.09-.02.13-.06.03-.04.05-.08.05-.14v-7.02c0-.05-.01-.1-.05-.14-.03-.04-.07-.06-.13-.06Z"/>
      <path class="cls-1" d="M71.95,102.97h.38c.06,0,.11-.02.15-.06.05-.04.07-.09.07-.15v-.53c0-.07-.02-.12-.07-.16-.05-.04-.1-.06-.15-.06h-.38c-.06,0-.11.02-.16.06-.05.04-.07.09-.07.16v.53c0,.06.02.11.07.15.05.04.1.06.16.06Z"/>
      <path class="cls-1" d="M70.35,102.97h.38c.06,0,.11-.02.15-.06.05-.04.07-.09.07-.15v-.53c0-.07-.02-.12-.07-.16-.04-.04-.09-.06-.16-.06h-.38c-.07,0-.12.02-.16.06-.04.04-.07.09-.07.16v.53c0,.06.02.11.07.15.05.04.1.06.16.06Z"/>
      <path class="cls-1" d="M78.97,103.42h1.31c.05,0,.09,0,.12-.02s.04-.05.04-.1v-.16c0-.08-.06-.12-.16-.12h-.65c-.05-.03-.1-.08-.14-.17-.05-.09-.07-.2-.07-.34,0-.29.17-.44.52-.44.03,0,.09,0,.16,0,.08,0,.12,0,.14,0,.08,0,.13-.04.13-.11v-.14c0-.05-.04-.09-.11-.12-.07-.01-.13-.02-.2-.03s-.12,0-.18,0c-.29,0-.52.07-.68.19-.16.13-.24.33-.24.61,0,.1.01.2.04.3.03.1.07.19.13.26h-.16c-.12,0-.18.03-.18.1v.17c.01.07.07.12.19.12Z"/>
      <path class="cls-1" d="M85.45,109.54h-.38c-.06,0-.11.02-.16.06-.05.04-.07.09-.07.16v.53c0,.05.02.1.07.14.05.04.1.07.16.07h.38c.06,0,.11-.02.15-.07.05-.04.07-.09.07-.14v-.53c0-.07-.02-.12-.07-.16-.05-.04-.1-.06-.15-.06Z"/>
      <path class="cls-1" d="M83.85,109.54h-.38c-.07,0-.12.02-.16.06-.04.04-.07.09-.07.16v.53c0,.05.02.1.07.14.04.04.1.07.16.07h.38c.06,0,.11-.02.15-.07.05-.04.07-.09.07-.14v-.53c0-.07-.02-.12-.07-.16-.04-.04-.09-.06-.16-.06Z"/>
      <path class="cls-1" d="M95.48,101.22h-.48c-.05,0-.1.02-.13.06-.04.04-.06.08-.06.13v6.01c0,.17-.02.27-.07.3-.05.03-.17.05-.36.05h-1.13c-.15,0-.29,0-.41.02-.12.01-.23.04-.32.09-.19.08-.31.25-.38.49,0,.02-.01.06-.02.11,0,.05-.01.11-.02.17v.16s0,.12,0,.12c-.01.49-.09.84-.24,1.07-.15.22-.43.34-.86.34s-.73-.12-.89-.36c-.15-.24-.23-.61-.23-1.1v-.25c.12,0,.26,0,.4,0s.29,0,.44-.02.29-.02.43-.04c.14-.01.25-.04.35-.07.48-.14.84-.41,1.07-.82s.35-.9.35-1.48v-.15c0-.69-.2-1.19-.6-1.5-.4-.31-.94-.46-1.63-.46-.25,0-.5,0-.73.03s-.45.06-.66.12c-.15.04-.22.13-.22.26v3.29h-3.29c-.06,0-.13,0-.21,0s-.15-.02-.23-.03c-.07-.02-.14-.04-.21-.07-.06-.03-.1-.07-.12-.12v-2.71c0-.05-.02-.1-.05-.13-.04-.04-.08-.06-.13-.06h-.45c-.05,0-.09.02-.13.06s-.05.08-.05.13v2.59c0,.08-.02.15-.07.2-.05.05-.11.08-.18.11-.07.02-.14.04-.22.05-.08,0-.15,0-.22,0h-2.61c-.06,0-.13,0-.21,0s-.15-.02-.23-.03c-.07-.02-.14-.04-.21-.07-.06-.03-.1-.07-.12-.12v-2.71c0-.05-.02-.1-.05-.13-.04-.04-.08-.06-.13-.06h-.45c-.05,0-.09.02-.13.06s-.05.08-.05.13v2.59c0,.08-.02.15-.07.2-.05.05-.11.08-.18.11-.07.02-.14.04-.22.05-.08,0-.15,0-.22,0h-4.79c-.21,0-.37-.04-.5-.11s-.18-.24-.18-.51v-2.77c0-.05,0-.09-.02-.12s-.06-.05-.12-.07c-.07-.02-.15-.04-.25-.06-.1-.01-.2-.03-.31-.04-.11-.01-.22-.02-.33-.03-.11,0-.21,0-.29,0-.37,0-.71.04-1.02.12-.31.08-.58.21-.8.38-.22.17-.4.4-.52.67-.12.28-.19.61-.19,1v.26c0,.64.16,1.12.49,1.46.32.34.79.51,1.39.51h.09c.27,0,.52-.03.76-.09.23-.06.4-.17.51-.31.1.21.25.36.45.44.2.08.44.13.73.13h4.78c.18,0,.38-.02.61-.07s.42-.13.58-.26c.15.13.34.22.57.26s.45.07.65.07h2.48c.18,0,.38-.02.61-.07s.42-.13.58-.26c.15.13.34.22.57.26s.45.07.65.07h3.27v.33c0,.34.03.64.09.9.06.27.17.49.32.68.15.19.35.33.6.43.25.1.57.15.94.15.65,0,1.13-.18,1.41-.54s.44-.88.46-1.56v-.36s.13-.01.25-.01c.12,0,.23,0,.34,0h.66c.11,0,.23,0,.36,0,.13,0,.25,0,.36-.02s.22-.02.32-.03c.1,0,.17-.02.22-.05.08-.03.13-.07.15-.12.03-.05.05-.1.06-.17.01-.08.02-.17.03-.27s.01-.2.01-.3c0-.1,0-.21,0-.3v-5.97c0-.05-.02-.1-.05-.13-.02-.04-.07-.06-.12-.06ZM89.88,104.91c.13-.02.25-.03.37-.04s.26,0,.44,0c.22,0,.41.02.58.06.17.04.32.11.44.2.12.09.22.22.28.38.07.16.1.36.1.59v.18c0,.49-.11.86-.33,1.12-.22.26-.59.39-1.1.39h-.78v-2.87h0ZM72.32,107.12c0,.1-.03.19-.08.26s-.12.12-.21.16c-.08.04-.18.07-.28.08s-.21.02-.3.02h-.19c-.42,0-.72-.11-.9-.33-.17-.22-.26-.53-.26-.92v-.21c0-.26.04-.48.12-.65.08-.17.19-.31.33-.42.14-.1.31-.17.5-.21.2-.04.41-.06.65-.06.08,0,.17,0,.27,0s.21.02.34.03v2.24h0Z"/>
      <path class="cls-1" d="M98.11,101.27s-.07-.06-.13-.06h-.48c-.05,0-.1.02-.13.06-.04.04-.06.08-.06.14v7.02c0,.05.02.1.06.14.04.04.08.06.13.06h.48c.05,0,.09-.02.13-.06.03-.04.05-.08.05-.14v-7.02c0-.06-.02-.1-.05-.14Z"/>
    </g>
  </g>
  <g>
    <polygon class="cls-1" points="55.9 57.09 55.9 57.09 52.92 55.69 53.09 55.31 52.73 55.14 52.5 55.5 50.49 54.55 49.44 54.05 49.14 53.9 48.82 53.75 48.78 53.75 47.71 53.24 47.62 53.2 47.39 53.09 47.07 52.93 46.8 52.82 46.42 52.63 44.28 51.62 43.71 51.36 43.4 51.21 40.8 49.99 40.06 49.65 38.94 49.12 37.93 48.64 37.74 48.55 36.6 48.64 36.22 48.66 38.01 49.53 39.43 50.24 40.4 50.71 42.38 51.68 43.02 52 44.28 52.61 45.97 53.45 45.99 53.45 46.29 53.6 46.59 53.75 47.71 54.3 48.02 54.45 48.32 54.61 48.34 54.61 50.66 55.75 50.7 55.76 51.15 55.86 51.74 55.97 52.01 56.24 51.7 56.71 52.25 57 52.42 56.66 55.43 58.12 55.9 57.09"/>
    <polygon class="cls-1" points="48.76 36.13 49.99 34.99 50.49 33.85 50.62 33.49 50.49 33.47 50.2 33.43 49.67 33.35 48.44 36.14 48.47 36.39 48.76 36.13"/>
    <polygon class="cls-1" points="48.06 52.46 48.61 52.21 48.61 50.26 48.61 48.81 48.61 48.64 48.61 48.57 48.61 47.58 48.61 45.64 48.61 44.71 48.61 43.32 48.61 42.66 48.61 42.01 47.79 41.29 47.66 41.29 46.8 42.09 46.8 42.45 46.8 44.33 46.8 44.71 46.8 46.48 46.8 48.45 46.8 48.64 46.8 49.38 46.8 49.63 46.8 50.31 46.8 51.93 46.8 52.21 47.71 52.63 48.06 52.46"/>
    <polygon class="cls-1" points="43.08 44.84 43.23 44.71 44.28 43.72 45.11 42.92 46.04 42.07 46.8 41.33 46.8 41.31 45.99 41.31 44.56 41.35 44.28 41.35 43.92 41.35 42.05 43.08 41.24 43.84 41.03 44.71 40.44 47.26 40.42 47.37 40.5 47.27 43.08 44.84"/>
    <polygon class="cls-1" points="50.45 35.31 49.97 35.76 49.48 36.22 48.59 37.04 48.63 37.34 49.08 37.15 49.44 37 49.8 36.85 50.49 36.56 52.94 35.56 55.24 33.39 53.11 32.86 50.49 35.29 50.45 35.31"/>
    <polygon class="cls-1" points="52.52 36.32 51.82 36.62 50.49 37.17 49.5 37.57 49.14 37.72 48.78 37.87 48.57 37.97 48.7 38.06 48.82 38.16 48.95 38.16 49.25 38.16 50.18 38.14 50.49 38.14 50.58 38.14 51 38.14 53.47 38.1 53.83 38.1 54.99 37.64 57.93 36.49 56.28 35.48 56.19 35.42 55.56 35.04 53.24 36.01 52.52 36.32"/>
    <polygon class="cls-1" points="46.92 36.52 46.97 36.13 45.85 33.62 44.9 33.77 45.59 35.38 46.92 36.52"/>
    <polygon class="cls-1" points="56.91 38.59 54.46 38.63 53.93 38.63 53.15 38.65 52.88 38.65 52.37 38.67 50.49 38.69 50.41 38.69 49.99 38.69 49.59 38.71 49.44 38.71 49.52 38.77 49.73 38.96 49.94 39.13 50.32 39.45 50.49 39.6 50.56 39.66 50.79 39.87 51.21 40.23 51.74 40.68 53.37 40.66 56.26 40.61 58.96 40.57 57.65 39.32 56.91 38.59"/>
    <polygon class="cls-1" points="43.48 40.82 43.71 40.8 44.11 40.8 44.28 40.8 44.52 40.8 46.27 40.76 45.06 40.3 44.77 40.19 44.47 40.09 44.28 40.02 41.12 38.82 39.62 38.84 39.51 38.84 38.94 38.86 36.62 40.91 40.78 40.85 43.48 40.82"/>
    <polygon class="cls-1" points="41.22 38.27 41.92 38.54 42.62 38.8 44.28 39.43 44.92 39.68 45.21 39.77 45.49 39.89 46.54 40.28 46.73 40.36 46.57 40.21 45.83 39.58 45.63 39.39 45.42 39.22 44.92 38.77 44.62 38.5 44.3 38.23 44.28 38.2 42.32 36.49 38.88 35.04 37.8 35.71 36.51 36.49 38.75 37.34 41.22 38.27"/>
    <polygon class="cls-1" points="47.6 35.65 47.54 36.05 47.47 36.54 47.39 36.94 47.45 36.98 47.64 37.17 47.66 37.17 47.79 37.28 47.85 37.34 47.87 37.36 47.89 37.36 48.08 37.36 48.06 37.19 48.04 37.17 48.02 37.04 48 36.85 47.94 36.56 47.87 36.07 47.79 35.65 47.6 35.65"/>
    <polygon class="cls-1" points="43.25 36.58 43.9 37.15 44.28 37.47 45.11 38.21 45.44 38.48 45.74 38.77 45.83 38.84 46.04 39.01 46.25 39.2 46.8 39.7 46.82 39.71 46.84 39.71 47.18 40.04 47.2 40.02 47.2 40.04 47.33 40.15 47.43 40.25 47.66 40.44 47.71 40.47 47.81 40.57 47.83 40.59 47.9 40.66 47.92 40.68 48 40.74 48.11 40.85 48.17 40.89 48.3 41.01 48.61 41.27 48.61 41.27 49.37 41.94 50.49 42.92 51.63 43.93 51.87 44.14 52.2 44.43 52.52 44.71 53.94 45.94 54.97 46.86 55.27 47.12 55.18 46.78 55.1 46.53 54.61 44.71 54.32 43.61 53.85 43.21 53.66 43.06 52.6 42.13 51.55 41.23 51.23 40.97 50.92 40.7 50.81 40.59 50.49 40.32 50.22 40.09 49.97 39.89 49.75 39.68 49.54 39.51 49.33 39.34 49.12 39.15 48.91 38.97 48.7 38.78 48.61 38.71 48.47 38.59 48.3 38.44 48.19 38.35 48.02 38.2 48.02 38.2 47.98 38.18 47.98 38.18 47.77 37.99 47.77 37.99 47.77 37.99 47.68 37.91 47.66 37.89 47.54 37.8 47.45 37.72 47.45 37.72 47.45 37.7 47.35 37.63 47.24 37.53 47.22 37.51 47.05 37.38 46.8 37.17 46.06 36.52 45.59 36.13 45.13 35.73 44.92 35.54 44.28 34.99 42.05 33.09 39.97 33.69 42.61 36.01 43.25 36.58"/>
    <polygon class="cls-1" points="45.97 54.05 45.57 54.24 44.28 54.85 42.93 55.5 42.68 55.14 42.32 55.31 42.51 55.69 39.51 57.09 39.98 58.12 42.98 56.66 43.16 57 43.71 56.71 43.4 56.24 43.67 55.97 44.28 55.86 44.71 55.76 44.75 55.75 47.09 54.61 45.97 54.05"/>
    <polygon class="cls-1" points="49.44 53.45 50.49 52.93 52.27 52.06 54.42 51.02 59.19 48.66 58.81 48.64 57.67 48.55 57.48 48.64 54 50.28 51.25 51.57 50.49 51.93 48.61 52.82 48.36 52.93 48.61 53.05 49.44 53.45"/>
    <path class="cls-1" d="M29.82,43.84h-5.91c-.04.55-.06,1.12-.06,1.69,0,1.33.11,2.64.32,3.93h6c-.28-1.27-.44-2.58-.44-3.93,0-.57.04-1.14.08-1.69"/>
    <path class="cls-1" d="M72.61,45.53c0,1.33-.11,2.64-.3,3.93h7.9c.19-1.42.27-2.85.27-4.31,0-.44-.02-.87-.02-1.31h-7.9c.04.57.06,1.12.06,1.69"/>
    <path class="cls-1" d="M14.31,43.84c-.02.44-.02.87-.02,1.31,0,1.44.09,2.89.28,4.31h8.41c-.21-1.29-.3-2.6-.3-3.93,0-.57.02-1.12.06-1.69h-8.43Z"/>
    <path class="cls-1" d="M65.3,49.46h5.79c.21-1.29.32-2.6.32-3.93,0-.57-.02-1.12-.06-1.69h-5.7c.06.55.08,1.12.08,1.69,0,1.35-.15,2.66-.44,3.93"/>
    <path class="cls-1" d="M92.98,49.46v-5.62h-9.21c.02.44.02.87.02,1.31,0,1.44-.09,2.89-.25,4.31,0,0,9.44,0,9.44,0Z"/>
    <path class="cls-1" d="M10.96,45.17c0-.44.02-.87.02-1.31H1.35v5.62h9.86c-.17-1.44-.25-2.87-.25-4.31"/>
    <path class="cls-1" d="M23.52,38.99c.7-2.64,1.84-5.13,3.36-7.41l-7.73-3.8c-1.42,2.32-2.56,4.81-3.38,7.39l7.75,3.82Z"/>
    <path class="cls-1" d="M27.98,32.14c-1.54,2.26-2.68,4.77-3.36,7.41l5.43,2.68c.51-2.75,1.65-5.28,3.27-7.45l-5.34-2.64Z"/>
    <path class="cls-1" d="M71.32,53.47c-.85,2.58-2.13,5-3.8,7.18l7.03,3.46c1.56-2.24,2.83-4.65,3.8-7.18l-7.03-3.46Z"/>
    <path class="cls-1" d="M80.93,59.35c-.93,2.18-2.05,4.27-3.38,6.23l15.92,7.83,3.57-7.29-15.73-7.73c-.11.32-.25.65-.38.97"/>
    <path class="cls-1" d="M13.83,30.96c.68-1.61,1.46-3.15,2.36-4.63l-9.95-4.9-3.57,7.29,10.14,5c.28-.93.65-1.84,1.03-2.75"/>
    <path class="cls-1" d="M66.42,60.11c1.69-2.17,2.96-4.6,3.82-7.18l-5.17-2.55c-.74,2.68-2.11,5.11-3.91,7.14l5.26,2.58Z"/>
    <path class="cls-1" d="M57.25,68.62l3.74,6.1,6.06-3.72-3.68-6.02c-1.88,1.5-3.93,2.74-6.12,3.65"/>
    <path class="cls-1" d="M56.6,67.58c2.2-.89,4.25-2.13,6.12-3.65l-3.02-4.94c-1.77,1.58-3.86,2.81-6.13,3.59l3.04,5Z"/>
    <path class="cls-1" d="M37.42,22.68l-4.12-6.72-6.06,3.72,4.18,6.82c1.82-1.58,3.84-2.85,6-3.82"/>
    <path class="cls-1" d="M38.07,23.7c-2.17.95-4.18,2.24-6,3.82l3.13,5.11c1.69-1.65,3.72-2.98,5.96-3.87l-3.1-5.05Z"/>
    <path class="cls-1" d="M43.63,81.44v8.93h7.08v-8.89c-1.1.09-2.2.15-3.32.15-1.27,0-2.53-.06-3.76-.19"/>
    <path class="cls-1" d="M50.7,27.75v-5.83c-1.01-.13-2.03-.19-3.06-.19-1.37,0-2.7.11-4.01.34v5.93c1.33-.3,2.7-.47,4.12-.47.99-.02,1.99.06,2.94.23"/>
    <path class="cls-1" d="M43.63,70.22v7.88c1.23.13,2.49.21,3.74.21,1.12,0,2.22-.06,3.32-.17v-7.81c-1.01.11-2.03.19-3.06.19-1.37.02-2.7-.09-4.01-.3"/>
    <path class="cls-1" d="M43.63,63.06v5.93c1.31.23,2.66.34,4.01.34,1.03,0,2.05-.06,3.06-.19v-5.85c-.97.15-1.96.25-2.96.25-1.41.02-2.79-.15-4.1-.47"/>
    <path class="cls-1" d="M50.7,20.68v-8.53c-1.1-.11-2.2-.17-3.32-.17-1.25,0-2.51.08-3.74.21v8.62c1.31-.21,2.66-.32,4.01-.32,1.03.02,2.05.08,3.06.19"/>
    <path class="cls-1" d="M50.7,8.83V0h-7.08v8.87c1.23-.13,2.49-.19,3.74-.19,1.14,0,2.24.06,3.34.15"/>
    <path class="cls-1" d="M61.94,26.55c-1.9-1.44-3.99-2.58-6.23-3.38l-2.98,5.05c2.32.66,4.44,1.8,6.29,3.29l2.92-4.96Z"/>
    <path class="cls-1" d="M34.97,58.2l-3.08,5.2c1.79,1.6,3.8,2.89,5.94,3.86l3.02-5.09c-2.24-.93-4.24-2.28-5.89-3.97"/>
    <path class="cls-1" d="M27.13,71.43c1.88,1.46,3.89,2.7,6.02,3.72l4.05-6.84c-2.15-.99-4.14-2.28-5.94-3.86l-4.12,6.97Z"/>
    <path class="cls-1" d="M68.51,15.48l4.37-7.37-6.08-3.63-4.41,7.45c.21.09.4.19.61.28,1.92.93,3.76,2.01,5.51,3.27"/>
    <path class="cls-1" d="M20.74,82.2l6.08,3.63,4.63-7.83c-2.15-1.04-4.16-2.28-6.04-3.7l-4.67,7.9Z"/>
    <path class="cls-1" d="M66.82,18.33c-1.92-1.41-3.97-2.58-6.13-3.53l-4.33,7.31c2.22.84,4.31,1.98,6.21,3.4l4.25-7.18Z"/>
    <path class="cls-1" d="M62.95,35.9l4.39-3.7c-.53-.74-1.1-1.46-1.73-2.17-.34-.38-.68-.74-1.04-1.08l-4.31,3.63c1.03,1.01,1.94,2.11,2.7,3.32"/>
    <path class="cls-1" d="M65.49,28.19c.34.34.68.68,1.01,1.06.63.7,1.22,1.44,1.77,2.18l5.49-4.62-2.74-3.27-5.53,4.63Z"/>
    <path class="cls-1" d="M71.8,38.92l7.39-3.25c-.51-1.52-1.01-2.89-1.84-4.69l-7.37,3.23c.87,1.82,1.35,3.19,1.82,4.71"/>
    <path class="cls-1" d="M25.36,53.75c.8,1.88,1.48,3.15,2.3,4.54l5.36-2.36c-.97-1.39-1.75-2.91-2.32-4.52l-5.34,2.34Z"/>
    <path class="cls-1" d="M70.68,39.41c-.47-1.54-.93-2.91-1.8-4.71l-5.3,2.34c.8,1.46,1.39,3.06,1.75,4.75l5.36-2.37Z"/>
    <path class="cls-1" d="M2.09,63.97l1.96,4.69,11.89-5.22c-.74-1.41-1.41-2.68-2.22-4.56l-11.62,5.09Z"/>
    <path class="cls-1" d="M82.23,34.36l14.62-6.38-2.15-4.63-14.34,6.29c.06.08.19.36.3.65.46,1.06.95,2.34,1.56,4.08"/>
    <path class="cls-1" d="M24.26,54.24l-7.52,3.3c.82,1.88,1.5,3.15,2.26,4.56l7.54-3.32c-.8-1.39-1.48-2.66-2.28-4.54"/>
  </g>
</svg>