<?xml version="1.0" encoding="UTF-8"?>
<svg id="Layer_1" data-name="Layer 1" xmlns="http://www.w3.org/2000/svg" viewBox="0 0 249.57 67.77">
  <defs>
    <style>
      .cls-1 {
        fill: #fff;
      }
    </style>
  </defs>
  <g>
    <path class="cls-1" d="M163.94,20.69h2.79v12.69h-2.79v-12.69ZM162.86,18.21c.37,0,.68.03.94.1-.21-.15-.32-.41-.32-.77,0-.52.21-.96.63-1.33.49-.43,1.2-.65,2.12-.65.22,0,.46.02.72.06l.37.05-.25,1.47-.29-.05c-.21-.02-.42-.04-.62-.04-.54,0-.81.18-.81.55,0,.4.39.6,1.16.6h1.08v1.51h-4.73v-1.51ZM159.15,28.98c0-1.58-.53-2.37-1.59-2.37-.55,0-.99.21-1.31.62-.3.4-.46.91-.46,1.53,0,1.52.76,2.28,2.27,2.28h1.08v-2.07ZM152.12,33.38v-2.33h.76c.4,0,.72.05.96.15-.52-.47-.78-1.26-.78-2.37,0-1.27.39-2.32,1.16-3.16.86-.92,2.04-1.39,3.52-1.39,1.4,0,2.45.41,3.16,1.22.65.75.97,1.81.97,3.16v4.72h-9.76ZM147.92,31.05h4.37v2.33h-4.37v-2.33ZM143.73,20.12h2.79v10.93h1.65v2.33h-4.44v-13.26ZM139.8,23.26c-.38,0-.7-.14-.97-.43-.26-.29-.4-.64-.4-1.06s.13-.75.4-1.04c.27-.28.59-.42.97-.42s.72.14.99.42c.27.28.4.63.4,1.04s-.14.77-.4,1.06c-.27.29-.6.43-.99.43M136.03,31.05h2.38v-6.51h2.81v8.84h-5.18v-2.33ZM131.83,31.05h4.37v2.33h-4.37v-2.33ZM128.02,23.32c-.38,0-.69-.14-.95-.43-.25-.28-.38-.62-.38-1.03s.13-.75.38-1.03c.25-.28.57-.42.95-.42s.68.14.94.42c.25.29.38.63.38,1.03s-.13.75-.38,1.03c-.26.29-.57.43-.94.43M127.79,26.91c-.36-.2-.82-.29-1.36-.29s-.98.21-1.3.62c-.31.4-.46.91-.46,1.53,0,1.52.76,2.28,2.27,2.28h.84v-4.14ZM124.88,23.32c-.37,0-.68-.14-.94-.43-.25-.28-.38-.62-.38-1.03s.13-.74.38-1.03c.26-.28.57-.42.94-.42s.68.14.94.42c.26.29.39.63.39,1.03s-.13.75-.39,1.03c-.26.29-.57.43-.94.43M126.66,33.38c-3.18,0-4.76-1.44-4.76-4.32,0-1.35.38-2.46,1.14-3.32.85-.97,2.08-1.45,3.66-1.45,1.47,0,2.74.22,3.81.65v6.12h1.59v2.33h-5.43ZM114.11,28.98c0-1.58-.53-2.37-1.59-2.37-.55,0-.99.21-1.31.62-.3.4-.46.91-.46,1.53,0,1.52.76,2.28,2.27,2.28h1.08v-2.07ZM107.07,33.38v-2.33h.76c.4,0,.72.05.96.15-.52-.47-.78-1.26-.78-2.37,0-1.27.39-2.32,1.16-3.16.86-.92,2.04-1.39,3.52-1.39,1.4,0,2.45.41,3.16,1.22.65.75.97,1.81.97,3.16v4.72h-9.76ZM104.33,23.26c-.38,0-.7-.14-.97-.43-.26-.29-.4-.64-.4-1.06s.13-.75.4-1.04c.27-.28.59-.42.97-.42s.72.14.99.42c.27.28.4.63.4,1.04s-.14.77-.4,1.06c-.27.29-.6.43-.99.43M100.56,31.05h2.38v-6.51h2.81v6.51h1.58v2.33h-6.77v-2.33ZM94.55,31.05c1.56-.03,2.33-.81,2.33-2.33,0-1.38-.53-2.07-1.58-2.07-.78,0-1.5.43-2.17,1.29-.66.85-1.09,1.89-1.3,3.1h2.71ZM87.09,31.05h1.97v-10.93h2.81v4.7c0,.92-.08,1.72-.23,2.41h.03c.36-.92.94-1.65,1.74-2.19.76-.51,1.58-.76,2.48-.76,1.26,0,2.23.38,2.89,1.15.64.74.97,1.78.97,3.12,0,.97-.19,1.81-.56,2.5h1.75v2.33h-13.85v-2.33ZM83.33,23.32c-.38,0-.69-.14-.95-.43-.25-.28-.38-.62-.38-1.03s.13-.75.38-1.03c.26-.28.57-.42.95-.42s.68.14.94.42c.26.29.39.63.39,1.03s-.13.75-.39,1.03c-.26.29-.57.43-.94.43M81.7,31.05c.51,0,.91-.19,1.21-.57.3-.4.46-.95.46-1.65,0-1.48-.53-2.21-1.6-2.21-.46,0-.84.17-1.15.5-.34.39-.52.93-.52,1.63,0,1.53.53,2.3,1.6,2.3M80.19,23.32c-.37,0-.68-.14-.94-.43-.25-.28-.38-.62-.38-1.03s.13-.74.38-1.03c.26-.28.57-.42.94-.42s.68.14.94.42c.26.29.39.63.39,1.03s-.13.75-.39,1.03c-.25.29-.57.43-.94.43M76.38,31.05h.54c.34,0,.67.03.97.09-.38-.52-.58-1.23-.58-2.12,0-1.4.43-2.54,1.3-3.42.86-.88,1.97-1.31,3.31-1.31s2.39.37,3.11,1.1c.74.75,1.11,1.83,1.11,3.26,0,1.14-.27,1.97-.8,2.5.42-.06.83-.09,1.22-.09h.78v2.33h-10.97v-2.33ZM72.18,31.05h4.37v2.33h-4.37v-2.33ZM68.37,23.32c-.38,0-.7-.14-.95-.43-.25-.28-.38-.62-.38-1.03s.13-.75.38-1.03c.25-.28.57-.42.95-.42s.68.14.94.42c.25.29.38.63.38,1.03s-.13.75-.38,1.03c-.26.29-.57.43-.94.43M68.14,26.91c-.36-.2-.82-.29-1.36-.29s-.98.21-1.3.62c-.3.4-.46.91-.46,1.53,0,1.52.76,2.28,2.27,2.28h.84v-4.14ZM65.23,23.32c-.37,0-.68-.14-.94-.43-.25-.28-.38-.62-.38-1.03s.13-.74.38-1.03c.26-.28.57-.42.94-.42s.68.14.94.42c.26.29.39.63.39,1.03s-.13.75-.39,1.03c-.26.29-.57.43-.94.43M67.01,33.38c-3.18,0-4.76-1.44-4.76-4.32,0-1.35.38-2.46,1.14-3.32.86-.97,2.08-1.45,3.66-1.45,1.47,0,2.74.22,3.81.65v6.12h1.59v2.33h-5.43ZM54.03,20.12h2.79v13.26h-2.79v-13.26ZM46.47,31.05h2.01v-10.93h2.81v13.26h-4.81v-2.33ZM40.6,38.12c-.44,0-.86-.04-1.25-.11l.2-2.35c.36.1.75.15,1.2.15.54,0,.94-.15,1.19-.46.28-.35.41-.94.41-1.78v-9.03h2.79v6.51h1.6v2.33h-1.6v.07c0,3.11-1.51,4.66-4.54,4.66M38.02,36.2c0,.4-.13.75-.38,1.03-.26.28-.57.42-.94.42s-.7-.14-.95-.42c-.25-.28-.38-.62-.38-1.03s.13-.74.38-1.02c.25-.28.57-.42.95-.42s.68.14.94.42c.25.28.38.62.38,1.02M34.88,36.2c0,.4-.13.75-.39,1.03-.25.28-.57.42-.94.42s-.68-.14-.94-.42c-.26-.28-.39-.62-.39-1.03s.13-.74.39-1.02c.26-.28.57-.42.94-.42s.68.14.94.42c.26.28.39.62.39,1.02M32.06,31.05h3.18v-6.51h2.78v8.84h-5.96v-2.33ZM27.86,31.05h4.37v2.33h-4.37v-2.33ZM23.66,31.05h4.37v2.33h-4.37v-2.33ZM19.47,20.12h2.79v10.93h1.65v2.33h-4.44v-13.26ZM13.44,23.26c-.38,0-.71-.14-.97-.43-.27-.29-.4-.64-.4-1.06s.14-.75.4-1.04c.27-.28.59-.42.97-.42s.71.14.98.42c.27.28.41.63.41,1.04s-.14.77-.41,1.06c-.27.29-.6.43-.98.43M12.22,31.05c1.65,0,2.47-.78,2.47-2.33,0-1.38-.52-2.07-1.57-2.07-.79,0-1.52.43-2.19,1.29-.65.84-1.09,1.88-1.31,3.1h2.59ZM4.68,37.71c-3.12,0-4.68-1.81-4.68-5.42,0-1.06.14-2.14.41-3.23l2.89-.54c-.34,1.2-.51,2.36-.51,3.49,0,2.25.7,3.37,2.09,3.37s2-1.12,2-3.37v-7.46h2.78v.29c0,.91-.07,1.71-.21,2.41h.03c.36-.92.94-1.65,1.73-2.19.75-.51,1.58-.76,2.48-.76,1.26,0,2.23.38,2.9,1.15.64.74.96,1.78.96,3.12,0,1.47-.43,2.62-1.28,3.45-.95.92-2.38,1.38-4.29,1.38h-2.47c-.32,2.88-1.93,4.32-4.85,4.32"/>
    <path class="cls-1" d="M164.8,49.24v2.82h-1.76v-2.81l-2.37-5.27h1.91l.87,2.06c.2.48.36.91.48,1.29h.02c.1-.31.29-.79.59-1.46l.82-1.89h1.84l-2.4,5.26ZM157.8,45.57v6.49h-1.74v-6.49h-1.82v-1.59h5.38v1.59h-1.82ZM150.98,43.98h1.75v8.08h-1.75v-8.08ZM145.48,52.06v-8.08h1.75v6.43h2.29v1.66h-4.04ZM140.77,47.11c-.1-.32-.2-.7-.29-1.12h-.02c-.11.51-.2.89-.27,1.13l-.61,1.98h1.8l-.61-1.99ZM142.27,52.06l-.46-1.5h-2.64l-.45,1.5h-1.74l2.52-8.08h2.08l2.62,8.08h-1.92ZM135.07,46.67c0-.81-.42-1.22-1.26-1.22-.14,0-.29,0-.44.01v2.42c.14.03.31.05.51.05.79,0,1.19-.42,1.19-1.26M136.88,46.51c0,.86-.26,1.55-.77,2.09-.56.58-1.33.87-2.31.87-.16,0-.3,0-.42-.01v2.61h-1.75v-8.08c.72-.04,1.48-.06,2.27-.06,1.99,0,2.98.86,2.98,2.59M127.85,43.98h1.75v8.08h-1.75v-8.08ZM126.07,51.82c-.58.23-1.21.35-1.89.35-1.28,0-2.22-.41-2.83-1.24-.48-.66-.72-1.53-.72-2.61,0-1.34.33-2.4.98-3.18.68-.81,1.63-1.22,2.86-1.22.59,0,1.1.08,1.55.23l-.22,1.7c-.43-.17-.88-.25-1.36-.25-.6,0-1.07.22-1.4.65-.33.43-.49,1.01-.49,1.75,0,1.65.66,2.47,1.98,2.47.49,0,.92-.1,1.29-.3l.25,1.65ZM117.26,43.98h1.75v8.08h-1.75v-8.08ZM112.95,52.06l-1.96-3.98c-.27-.59-.47-1.11-.59-1.56.05.93.08,2.06.08,3.39v2.15h-1.67v-8.08h2.3l1.89,3.84c.25.5.46,1.04.65,1.61-.05-.81-.08-1.95-.08-3.44v-2.01h1.68v8.08h-2.29ZM106.78,48.89c0,2.22-1.07,3.33-3.21,3.33-2,0-3-1-3-3.01v-5.23h1.75v5.12c0,.51.09.89.28,1.13.21.28.57.42,1.08.42s.85-.12,1.06-.37c.21-.25.31-.68.31-1.28v-5.02h1.73v4.91ZM97.18,52.06l-.48-3.4c-.08-.54-.16-1.21-.24-2.01h-.02c-.14.78-.29,1.47-.45,2.08l-.96,3.34h-1.63l-.92-3.09c-.24-.86-.41-1.63-.5-2.33h-.02c-.06.87-.13,1.59-.21,2.18l-.37,3.23h-1.77l1.21-8.08h2.01l1.05,3.58c.14.44.27,1.03.42,1.76h.02c.13-.68.27-1.26.43-1.76l1.07-3.58h1.97l1.21,8.08h-1.82ZM82.88,52.06l-1.96-3.98c-.27-.59-.47-1.11-.59-1.56.05.93.08,2.06.08,3.39v2.15h-1.67v-8.08h2.3l1.89,3.84c.25.5.46,1.04.65,1.61-.05-.81-.08-1.95-.08-3.44v-2.01h1.68v8.08h-2.29ZM75.29,48.08c0-1.7-.59-2.55-1.76-2.55-.53,0-.96.21-1.28.63-.34.44-.5,1.05-.5,1.81,0,1.69.59,2.54,1.76,2.54.53,0,.96-.21,1.28-.63.34-.44.5-1.04.5-1.8M77.15,47.88c0,1.3-.37,2.36-1.11,3.17-.71.78-1.59,1.17-2.66,1.17-1.15,0-2.03-.36-2.63-1.09-.58-.7-.87-1.69-.87-2.97s.37-2.36,1.11-3.17c.71-.78,1.59-1.16,2.65-1.16,1.15,0,2.03.36,2.63,1.09.58.7.87,1.69.87,2.96M66.57,43.98h1.75v8.08h-1.75v-8.08ZM64.57,51.67c-.8.35-1.69.53-2.67.53-1.25,0-2.21-.35-2.88-1.06-.64-.68-.97-1.62-.97-2.84,0-1.37.37-2.45,1.11-3.23.76-.81,1.82-1.21,3.18-1.21.78,0,1.51.11,2.19.33l-.35,1.7c-.6-.25-1.24-.37-1.92-.37-.78,0-1.37.25-1.78.74-.37.44-.55,1.05-.55,1.81s.18,1.36.54,1.78c.37.44.91.65,1.62.65.28,0,.52-.04.72-.11v-2.64h1.75v3.91ZM52.22,52.06v-8.08h4.27v1.57h-2.52v1.6h2.39v1.52h-2.39v1.79h2.52v1.6h-4.27ZM48.49,46.47c0-.68-.39-1.02-1.17-1.02-.19,0-.35,0-.49.02v2.07c.12.02.27.02.44.02.37,0,.67-.1.89-.29.22-.2.33-.47.33-.81M48.7,52.06l-1.76-3.16h-.1v3.16h-1.75v-8.08c.53-.04,1.32-.06,2.37-.06,1.91,0,2.86.8,2.86,2.4,0,.54-.15,1.02-.46,1.43-.3.41-.7.68-1.19.81.27.39.47.69.59.91l1.57,2.6h-2.14ZM38.45,52.06v-3.36h-2.77v3.36h-1.75v-8.08h1.75v3.1h2.77v-3.1h1.76v8.08h-1.76ZM30.41,48.01c0-.82-.14-1.43-.43-1.82-.32-.45-.86-.68-1.6-.68-.35,0-.6,0-.72.02v4.95c.2.03.41.05.65.05.63,0,1.13-.21,1.5-.61.4-.44.6-1.07.6-1.9M32.29,47.86c0,1.36-.38,2.41-1.14,3.17-.73.73-1.73,1.09-2.99,1.09-.57,0-1.32-.02-2.25-.07v-8.05c.79-.05,1.66-.08,2.58-.08,2.53,0,3.8,1.31,3.8,3.93M21.21,47.11c-.1-.32-.2-.7-.29-1.12h-.02c-.11.51-.2.89-.27,1.13l-.61,1.98h1.8l-.61-1.99ZM22.71,52.06l-.46-1.5h-2.64l-.45,1.5h-1.74l2.52-8.08h2.08l2.62,8.08h-1.92ZM15.27,49.24v2.82h-1.76v-2.81l-2.37-5.27h1.91l.87,2.06c.2.48.36.91.48,1.29h.02c.1-.31.29-.79.59-1.46l.82-1.89h1.84l-2.4,5.26ZM8.06,43.98h1.75v8.08h-1.75v-8.08ZM4.34,46.47c0-.68-.39-1.02-1.17-1.02-.19,0-.35,0-.49.02v2.07c.12.02.27.02.44.02.37,0,.67-.1.89-.29.22-.2.33-.47.33-.81M4.54,52.06l-1.76-3.16h-.1v3.16H.93v-8.08c.53-.04,1.32-.06,2.37-.06,1.91,0,2.86.8,2.86,2.4,0,.54-.15,1.02-.46,1.43-.3.41-.7.68-1.19.81.27.39.47.69.59.91l1.57,2.6h-2.14Z"/>
  </g>
  <g>
    <path class="cls-1" d="M232.13,43.72c-.19-.21-.18-1.05-.18-1.05-1.85,1.04-3.61.57-3.61.57-.1-.02,0,.11,0,.11l9.28,8.64,1.37-1.79s-6.71-6.34-6.85-6.49"/>
    <path class="cls-1" d="M227.14,47.87l.94.1,2.63,2.38s-2.1,1.87-3.69,2.76c0,0-.13.1-.18,0-.05-.1-1.85-2.83-1.85-2.83,0,0-.28,2.41-1.11,3.31v.23s.35-.02.61.1c.26.12.33.21.33.21l1.87,2.91s.08.89-.03,1.22c-.12.33-.27,1.02-1.92,1.42,0,0-.13.5,1.75.36,1.85-.13,2.9-2.08,2.44-3.92,0-.04-.02-.08-.03-.11,0,0,4.28-2.7,5.9-4.85.01-.02.02-.03.03-.04,0,0-6.64-6.48-7.3-6.92,0,0,.36,1.87-.4,3.67"/>
    <path class="cls-1" d="M221.17,51.09c-.36,1.89-2.03,2.92-2.03,2.92l.06.17c1.06.43,1.11,1.52,1.11,1.52,0,0-2.53.49-5.33.44-2.81-.05-4.85-.66-4.98-.69-.13-.03-.38-.03-.38-.17s1.36-4.23,1.63-5.04c.26-.82.91-.88.91-.88v-.12c-1.24-.79-1.99-2.89-1.99-2.93s-.06,0-.06,0l-3.81,11.67c9.49,3.67,17.37.45,17.37.45,0,0-2.31-7.01-2.34-7.18-.02-.18-.15-.15-.15-.15"/>
    <path class="cls-1" d="M205.37,49.06c-2.8-.18-4.59.93-4.59.93.33-.79.31-2.28.31-2.28-1.27.84-2.45.63-2.86.54-.41-.08-.21.2-.21.2.01.02.02.04.03.07,1.04,2.4-1.34,2.74-1.34,2.74-2.02-.2-1.7-1.92-1.68-2.12.02-.2.31-1.73,2.94-2.36s2.05-.61,2.15-.69c.1-.08.51-.48.35-.71-.17-.23-.48,0-.48,0-.08.03-.38.08-.38.08-2.83.43-3.6.82-3.6.82-3.31,1.77-2.54,4.65-2.54,4.65,1.21,4.43,5.03,2.18,5.03,2.18,2.8,2.86,6.76,4.3,6.76,4.3,0,0,1.92-5.86,1.96-6.04.05-.18.95-2.14-1.85-2.31M204.64,51.71c-.15.57-.31,1.24-.46,1.3l-2.47-1.77s1.21-.44,2.47-.26c0,0,.62.15.46.73"/>
    <path class="cls-1" d="M204.87,47.86c.75,0,1.37-.61,1.37-1.37s-.61-1.37-1.37-1.37-1.37.61-1.37,1.37.61,1.37,1.37,1.37"/>
    <path class="cls-1" d="M213.33,60.39c-.75,0-1.37.61-1.37,1.37s.61,1.37,1.37,1.37,1.37-.61,1.37-1.37-.61-1.37-1.37-1.37"/>
    <path class="cls-1" d="M218.02,60.33c-.75,0-1.37.61-1.37,1.37s.61,1.37,1.37,1.37,1.37-.61,1.37-1.37-.61-1.37-1.37-1.37"/>
    <path class="cls-1" d="M239.63,9.94c-6.41-6.41-14.91-9.94-23.95-9.94h0c-18.68,0-33.88,15.2-33.89,33.88,0,9.04,3.53,17.55,9.94,23.95,6.4,6.41,14.91,9.94,23.95,9.94h0c9.04,0,17.55-3.52,23.95-9.93,6.41-6.4,9.94-14.91,9.94-23.95,0-9.04-3.52-17.55-9.93-23.95M215.68,66.55h0c-8.72,0-16.93-3.4-23.09-9.57-6.17-6.17-9.56-14.37-9.56-23.1,0-16.01,11.58-29.36,26.81-32.13.03,0,.06-.01.08-.02,1.73-.38,3.52-.58,5.36-.58.97,0,1.94.06,2.89.16,0,0,.03,0,.04,0,16.84,1.29,30.15,15.4,30.15,32.57,0,18.01-14.65,32.66-32.66,32.66"/>
    <path class="cls-1" d="M221.68,1.99c-1.94-.37-3.95-.56-5.99-.56h0c-3.25,0-6.39.48-9.35,1.37.49-.19.99-.36,1.5-.52,0,0,.02,0,.03,0,.65-.2,1.3-.37,1.97-.52.03,0,.06,0,.08-.02,1.73-.38,3.52-.58,5.36-.58.97,0,1.94.05,2.89.16,0,0,.03,0,.04,0,.66.08,1.32.19,1.97.31.51.1,1.01.22,1.51.35"/>
    <path class="cls-1" d="M202.41,23.86l-.09.05-1.99,1.06-.79,7.77c.05.1.24.49.61,1.07.02.03.04.06.06.09.56.84,1.49,2.04,2.89,3.22.26.22.54.45.86.67l4.18-16.98-5.73,3.05Z"/>
    <path class="cls-1" d="M223.03,20.62l-.05-.2-.93-3.83c-.3-.15-2.44-1.16-6.35-1.16h0c-4.3,0-6.09,1.09-6.32,1.25l-.95,3.89-.05.19-4.21,17.13c.42.31.85.59,1.29.87.06.04.11.07.16.1,2.45,1.41,5.92,2.65,10.63,2.78,1.11-.03,2.2-.14,3.24-.34.03,0,.07-.01.1-.02.1-.02.2-.04.3-.07.1-.02.21-.04.31-.07.63-.15,1.31-.35,2.04-.6,1.06-.38,2.28-.91,3.55-1.68.11-.06.21-.12.32-.19.22-.15.45-.3.67-.45l.49-.37-4.2-17.22ZM213.59,22.79s.32-.98,1.59-.7c0,0-.45-.57-.75-.57.1-.01.84-.08,1.21.3,0,0-.05-.34.19-.53,0,0,.22.46.36.55,0,0,.51-.39.98-.26,0,0-.46.32-.52.52,0,0,1.3-.04,1.5.92,0,0-.76-.56-1.17-.41,0,0,1.16.42,1.27,1.71,0,0-.74-1.11-1.14-1.17,0,0,.69,1.15.28,1.84,0,0-.29-1.24-.65-1.42,0,0,.17,1.38-.27,1.82,0,0-.17-.98-.51-1.12l-.06,4.03c.03.34.13.45.13.45-.04.2,0,.38,0,.38.09.13.1.23.1.23.05.22,0,.38,0,.38.08.22.25.39.25.39l-1.36.05c.11-.07.27-.55.27-.55-.08-.24.09-.59.09-.59,0-.22.17-.75.17-.75l-.03-3.96s-.39.48-.28,1.08c0,0-.79-.82-.18-1.72,0,0-.61.08-.84,1.32,0,0-.43-1.04.34-1.96,0,0-.81.5-1.03,1.2,0,0-.06-1.25,1.05-1.72,0,0-.62-.02-.98.26M216.24,31.54l1.27,1.25c.27-.63.54-.75.54-.75.83,0,.65.52.65.52-.23.58-.65.23-.65.23l-.2.21c.41.44.65.38.65.38.35-.24.59.09.59.09.31.3-.13.68-.13.68-.57.43-1.58-.6-1.58-.6l-.44.41c-.88.69-1-.35-1-.35.36-.65.85-.12.85-.12l.18-.23s-1.23-1.31-1.31-1.24c-.09.07-1.36,1.25-1.36,1.25l.28.24c.34-.42.58-.2.58-.2.7.58-.15.84-.15.84-.45.13-1.07-.62-1.07-.62-1.36,1.18-1.77.27-1.77.27.01-.84.73-.46.73-.46.36-.08.55-.39.55-.39l-.14-.17c-.22.21-.53-.12-.53-.12-.3-.33.03-.56.03-.56.54-.58,1.09.61,1.09.61.36-.13,1.28-1.27,1.28-1.27-.66-.99-5.6-3.28-5.6-3.28,2.81.19,6.1,2.83,6.1,2.83,3.83-2.83,6.23-2.54,6.23-2.54-3.96,1.26-5.68,3.08-5.68,3.08"/>
    <path class="cls-1" d="M228.81,23.74l-.09-.05-5.46-2.96,4.15,16.99c1.3-.99,2.59-2.26,3.75-3.85.04-.07.1-.13.14-.2.19-.27.38-.55.56-.84l-.87-7.89-2.19-1.19Z"/>
    <path class="cls-1" d="M231.07,22.54c-1.37,0-1.96.34-2.05.4l-.15.61,2.32,1.26.87,7.83c1.15-1.9,2.08-4.63,2.15-4.83l-1.07-4.89c-.12-.06-.81-.37-2.06-.37"/>
    <path class="cls-1" d="M199.34,32.77v-.03l.8-7.9,2.13-1.13-.19-.78c-.1-.06-.68-.4-2.05-.4-1.26,0-1.95.31-2.07.37l-1.06,4.89c.08.25,1.37,4.03,2.81,5.79.05.06.11.11.17.15-.36-.57-.52-.93-.52-.94v-.03Z"/>
    <rect class="cls-1" x="230.86" y="21.86" width=".41" height=".36"/>
    <path class="cls-1" d="M231.37,22.23v-.47h-.6v.47c-.95.04-1.62.26-1.85.34l.53-2.61h.04v.22h.13v.09h.16v-.02h.09v-.16l.03-.03h.09v-.26h.02v.22h.12v.12h.17v-.04h.09v-.11l.04-.04h.09v-.25h.03v.22h.12v.16h.25v-.12l.04-.04h.1v-.26h.03v.25h.1l.02.03v.15h.27v-.12l.11-.05v-.22h.04v.25h.1l.02.02v.15h.05v.03h.19v-.12l.02-.02h.12v-.21h.02v.26h.11l.02.03v.16h.1v.03h.18v-.09h.1v-.23h.04l.55,2.61c-.23-.08-.91-.3-1.86-.33"/>
    <rect class="cls-1" x="199.82" y="21.85" width=".41" height=".36"/>
    <path class="cls-1" d="M200.33,22.22v-.47h-.6v.47c-.95.04-1.62.25-1.86.33l.55-2.61h.04v.23h.11v.09h.17v-.03h.1v-.16l.02-.03h.11v-.26h.02v.21h.12l.02.02v.12h.19v-.03h.05v-.15l.02-.02h.1v-.25h.03v.22l.11.05v.12h.27v-.15l.02-.02h.1v-.26h.03v.26h.09l.04.04v.12h.25v-.15h0s.11,0,.11,0v-.22h.03v.25h.09l.04.04v.11h.09v.04h.17v-.11l.02-.02h.11v-.22h.02v.26h.09l.03.03v.16h.1v.02h.15v-.09h.13v-.22h.04l.53,2.61c-.23-.08-.9-.3-1.85-.34"/>
    <rect class="cls-1" x="215.02" y="13.37" width="1.35" height="1.21"/>
    <path class="cls-1" d="M216.56,14.6c3.07.14,5.27.95,5.9,1.2l-1.82-8.26h-.2v.72h-.32v.27h-.44v-.09h-.3v-.47l-.1-.1h-.3v-.79h-.16v.66h-.33l-.1.09v.33h-.48v-.1h-.15v-.42l-.1-.1h-.27v-.77h-.21v.69l-.35.15v.35h-.7v-.42l-.1-.1h-.27v-.77h-.19v.79h-.27l-.15.15v.33h-.64v-.43l-.06-.06h-.32v-.66h-.18v.76h-.26l-.14.13v.31h-.28v.14h-.41v-.31l-.07-.07h-.29v-.66h-.16v.78h-.26l-.12.12v.46h-.29v.07h-.37v-.29h-.39v-.69h-.23l-1.75,8.3c.62-.27,2.81-1.12,5.89-1.25v-1.43h1.74v1.43Z"/>
    <path class="cls-1" d="M215.66,2.2h0c-11.03,0-20.01,8.97-20.01,20,0,11.03,8.97,20.01,20,20.01h0c5.33,0,10.35-2.08,14.14-5.86,3.78-3.78,5.87-8.8,5.87-14.14,0-11.03-8.97-20.01-20-20.01M215.66,2.98h0c10.6,0,19.22,8.62,19.22,19.22,0,5.13-2,9.95-5.64,13.58-3.63,3.63-8.46,5.63-13.58,5.63h0c-5.13,0-9.95-2-13.58-5.64-3.63-3.63-5.63-8.46-5.63-13.58,0-5.13,2-9.95,5.64-13.58,3.63-3.63,8.46-5.63,13.58-5.63"/>
  </g>
</svg>