<?xml version="1.0" encoding="UTF-8"?>
<svg id="Layer_1" data-name="Layer 1" xmlns="http://www.w3.org/2000/svg" viewBox="0 0 150.84 68.26">
  <defs>
    <style>
      .cls-1 {
        fill: #fff;
      }
    </style>
  </defs>
  <path class="cls-1" d="M40.99.34c-6.73,0-11.8,5.95-11.8,12.32s5.43,12.2,11.98,12.2c3.13,0,5.77-.93,8.26-3.16,1-.89,1.23-2.31.48-3.35-.4-.53-1-.76-1.63-.76s-1.27.22-1.79.61c-1.49,1.3-3.2,2.05-5.32,2.05-4.09,0-7.14-3.46-7.14-7.63,0-4.61,3.31-7.67,7.22-7.67,2.05,0,3.76.82,5.25,2.08.53.39,1.19.61,1.8.61s1.22-.23,1.62-.76c.74-1.04.52-2.42-.48-3.31-2.49-2.27-5.06-3.24-8.45-3.24Z"/>
  <path class="cls-1" d="M71.61,24.04c-1.04.78-2.68.93-3.61-.37l-4.43-6.14c-.41.04-.82.04-1.27.04h-3.35v4.58c0,1.3-1.12,2.38-2.46,2.38s-2.42-1.08-2.42-2.38V3.09c0-1.3,1.08-2.38,2.42-2.38h6.55c4.99,0,9.08,3.8,9.08,8.52,0,3.27-1.53,5.51-3.76,6.85l3.27,4.5c1.04,1.41.89,2.75-.04,3.46ZM63.09,13.1c2.49,0,4.17-1.64,4.17-3.87s-1.67-4.06-4.13-4.06h-4.17v7.93h4.13Z"/>
  <path class="cls-1" d="M75.45,12.65c0-6.77,5.58-12.32,12.32-12.32s12.43,5.54,12.43,12.32-5.77,12.2-12.43,12.2-12.32-5.43-12.32-12.2ZM95.32,12.65c0-4.47-3.24-7.74-7.55-7.74s-7.48,3.27-7.48,7.74,3.2,7.63,7.48,7.63,7.55-3.24,7.55-7.63Z"/>
  <path class="cls-1" d="M103.92,22.14V3.05c0-1.04.67-2.34,2.42-2.34h12.09c1.34,0,2.38,1.08,2.38,2.38,0,1-1,2.08-2.38,2.08h-9.64v5.92h7.22c1.34,0,2.31,1.04,2.31,2.2s-.97,2.27-2.31,2.27h-7.22v6.59c0,1.34-1.12,2.38-2.46,2.38s-2.42-1.08-2.42-2.38Z"/>
  <path class="cls-1" d="M123.2,22.14V3.09c0-1.34,1.08-2.38,2.42-2.38s2.46,1.04,2.46,2.38v19.05c0,1.3-1.12,2.38-2.46,2.38s-2.42-1.08-2.42-2.38Z"/>
  <path class="cls-1" d="M149.91,3.09c0,1.08-1.08,2.12-2.42,2.12h-4.87v16.93c0,1.34-1.12,2.38-2.46,2.38s-2.42-1.04-2.42-2.38V5.21h-4.87c-1.34,0-2.42-1.08-2.42-2.12,0-1.3,1.08-2.38,2.42-2.38h14.62c1.34,0,2.42,1.08,2.42,2.38Z"/>
  <path class="cls-1" d="M24.8,15.15s.04-.07.04-.07l-.11-.1c.73-2.06.85-4.2.32-6.25C23.35,2.17,15.47-1.49,7.49.58c-1.21.31-1.94,1.55-1.63,2.77.31,1.21,1.55,1.94,2.77,1.63,5.56-1.44,10.96.76,12.03,4.9.16.62.21,1.26.16,1.91-2.9-1.93-6.11-3.09-9.23-3.33-4.1-.3-7.59,1.01-9.81,3.7l-.07.08C-.04,14.42-.48,17.28.54,19.9c.16.4.34.79.56,1.16,1.72,2.94,4.85,3.93,8.04,3.93,1.39,0,2.8-.19,4.1-.49,3.46-.8,6.75-2.64,9.06-5.34,1.99,2.43,3.14,5.18,3.15,7.69,0,1.25,1.02,2.27,2.27,2.27h0c1.25,0,2.27-1.02,2.27-2.27,0-3.96-1.92-8.23-5.17-11.69ZM15.77,18.7c-2.2,1.24-4.71,1.81-7.23,1.73-.74-.02-1.51-.1-2.18-.42-.68-.33-1.23-.9-1.53-1.59-.49-1.11-.31-2.41.46-3.36,1.11-1.35,2.94-1.99,4.64-2.09.18-.01.36-.01.53-.01.47,0,.94.04,1.41.1,2.6.35,5.02,1.44,7.12,2.99-.89,1.08-2,1.97-3.22,2.66Z"/>
  <path class="cls-1" d="M29.97,50.36h-12.25c-1.5,0-2.72-1.22-2.72-2.72s1.22-2.72,2.72-2.72h12.25c1.5,0,2.72,1.22,2.72,2.72s-1.22,2.72-2.72,2.72Z"/>
  <g>
    <circle class="cls-1" cx="60.75" cy="39.14" r="2.94"/>
    <path class="cls-1" d="M142.75,48.96c-1.61,0-2.91,1.25-2.91,2.87v13.25c0,1.57,1.3,2.87,2.91,2.87s2.96-1.3,2.96-2.87v-13.25c0-1.61-1.34-2.87-2.96-2.87Z"/>
    <path class="cls-1" d="M133.11,54.68c-2.62-2.35-7.33-3.89-12.39-4.64,4.01-2.27,7.89-5.15,9.35-8.35.63-1.37.03-2.98-1.34-3.61-1.37-.63-2.98-.03-3.61,1.34-1.76,3.84-11.55,8.48-17.31,10.5-1.31.46-2.07,1.83-1.75,3.19.32,1.35,1.6,2.25,2.98,2.08,7.59-.93,17.33.76,20.43,3.54.19.17.64.61.64.94-.02,1.62-3.94,2.47-5.93,2.55-.03,0-.06,0-.09,0-6.34.43-21.15.26-23.34-10.25-.1-1.22-.31-2.46-.63-3.7-.38-1.46-1.87-2.34-3.33-1.96-1.46.38-2.34,1.87-1.96,3.33.2.76.33,1.51.42,2.25,0,.16,0,.32.03.48,0,.04.02.09.03.13.36,4.56-1.27,8.67-4.2,10.64-.72.49-1.2,1.32-1.2,2.26,0,1.51,1.22,2.73,2.73,2.73.54,0,1.06-.16,1.49-.44.04-.02.07-.04.1-.07,2.3-1.59,4.09-3.93,5.22-6.72,4.25,4.49,11.41,6.89,20.89,6.89,1.31,0,2.68-.05,4.08-.14,4.13-.15,11.08-1.98,11.15-7.92.02-1.3-.4-3.23-2.45-5.07Z"/>
    <path class="cls-1" d="M89.56,57.1c.65-1.74,1.02-3.62,1.06-5.55.06-3.04-.98-5.87-2.85-7.76-2.06-2.07-5.07-2.99-8.06-2.45-3.04.54-5.6,2.49-6.84,5.2-1.34,2.94-1.01,6.53.85,9.14,1.05,1.47,2.55,2.66,4.6,3.65.75.36,1.53.68,2.32.94-.71.54-1.5.99-2.33,1.34-1.46.61-3.06.91-4.64.86-1.52-.05-2.76,1.13-2.81,2.63-.05,1.5,1.13,2.76,2.63,2.81.17,0,.34,0,.51,0,2.18,0,4.39-.44,6.4-1.29,2.78-1.16,5.13-3.04,6.87-5.36.02,0,.04,0,.06,0,1.5-.04,2.69-1.29,2.65-2.79-.01-.51-.17-.99-.43-1.39ZM84.27,55.61c-1.24-.23-2.45-.62-3.58-1.17-1.2-.58-2.03-1.21-2.53-1.91-.73-1.03-.87-2.56-.33-3.72.5-1.09,1.56-1.87,2.85-2.1.25-.05.5-.07.74-.07.96,0,1.85.35,2.5,1,.84.85,1.31,2.23,1.27,3.8-.03,1.45-.35,2.87-.91,4.17Z"/>
    <path class="cls-1" d="M62.14,45.02c-2.47-.39-5.01.34-6.97,2.01-1.95,1.66-3.07,4.04-3.07,6.52,0,1.6.44,3.17,1.28,4.53.79,1.28,2.46,1.68,3.75.89,1.28-.79,1.68-2.46.89-3.74-.31-.5-.47-1.08-.47-1.68,0-.89.42-1.75,1.16-2.38.74-.64,1.68-.92,2.57-.78,1.05.17,2.03.95,2.42,1.94.59,1.46.22,3.67-.94,5.64-.94,1.6-2.36,2.87-3.99,3.57-.86.37-1.77.59-2.71.64-.15,0-.31.01-.46.01-4.6,0-8.35-3.91-8.36-8.71,0,0,0,0,0,0,0,0,0,0,0-.01,0,0,0-.02,0-.03,0-.08,0-.16-.01-.23,0-.04-.01-.08-.02-.13,0-.04-.01-.09-.02-.13-.01-.05-.02-.11-.04-.16,0-.03-.01-.06-.02-.09-.02-.06-.04-.11-.06-.16-.01-.03-.02-.06-.03-.09-.02-.05-.04-.1-.07-.15-.02-.03-.03-.06-.05-.1-.02-.04-.05-.08-.07-.12-.02-.04-.04-.07-.07-.11-.02-.03-.05-.06-.07-.1-.03-.04-.06-.08-.09-.12-.02-.03-.05-.05-.07-.08-.03-.04-.07-.08-.11-.12-.03-.03-.05-.05-.08-.08-.04-.03-.07-.07-.11-.1-.04-.03-.08-.06-.12-.09-.03-.02-.06-.04-.09-.07-.07-.05-.15-.1-.23-.14,0,0,0,0,0,0,0,0,0,0,0,0-.16-.09-.33-.16-.5-.21-.35-.11-.72-.14-1.08-.11-.02,0-.04,0-.07,0-.06,0-.13.02-.19.03-.04,0-.08.02-.12.03-.05.01-.09.02-.13.03-.04.01-.09.03-.13.05-.04.01-.08.03-.12.04-.04.02-.08.04-.12.06-.04.02-.08.04-.12.06-.04.02-.07.04-.1.06-.04.02-.08.05-.13.08-.03.02-.06.04-.08.06-.04.03-.09.06-.13.1-.02.02-.05.04-.07.06-.04.04-.09.07-.13.12-.02.02-.04.05-.07.07-.04.04-.08.08-.11.12-.03.03-.05.07-.08.1-.03.04-.05.07-.08.11-.04.06-.07.12-.11.18,0,.02-.02.03-.03.05-3.39,6.17-14.31,10.66-25.95,10.66-4.42,0-7.55-1.16-8.58-3.19-.83-1.63-.21-3.48.57-4.56.88-1.22.61-2.92-.6-3.8-1.22-.88-2.92-.61-3.8.6-2.23,3.06-2.63,7.08-1.02,10.23,1.17,2.3,4.47,6.16,13.43,6.16,10.83,0,20.97-3.45,26.91-8.8,2.2,4.83,6.98,8.18,12.5,8.18.26,0,.52,0,.77-.02,1.57-.09,3.1-.45,4.55-1.07,2.69-1.16,5.01-3.23,6.53-5.81,2.04-3.47,2.52-7.37,1.3-10.43-1.1-2.74-3.7-4.82-6.62-5.29Z"/>
  </g>
  <path class="cls-1" d="M148.06,41.18s.02-.04.02-.04l-.06-.05c.39-1.11.46-2.26.17-3.36-.92-3.53-5.15-5.5-9.45-4.39-.65.17-1.05.84-.88,1.49.17.65.84,1.05,1.49.88,2.99-.77,5.9.41,6.47,2.64.09.33.11.68.09,1.03-1.56-1.04-3.29-1.67-4.96-1.79-2.21-.16-4.08.54-5.28,1.99l-.04.04c-.94,1.17-1.18,2.71-.64,4.12.08.22.18.43.3.62.93,1.58,2.61,2.12,4.32,2.11.75,0,1.5-.1,2.21-.27,1.86-.43,3.63-1.42,4.87-2.87,1.07,1.31,1.69,2.79,1.69,4.14,0,.67.55,1.22,1.22,1.22h0c.67,0,1.22-.55,1.22-1.22,0-2.13-1.03-4.43-2.78-6.29ZM143.19,43.09c-1.18.67-2.53.97-3.89.93-.4-.01-.81-.05-1.17-.23-.36-.18-.66-.49-.83-.86-.26-.6-.16-1.3.25-1.81.6-.73,1.58-1.07,2.5-1.12.1,0,.19,0,.29,0,.25,0,.51.02.76.05,1.4.19,2.7.78,3.83,1.61-.48.58-1.08,1.06-1.73,1.43Z"/>
</svg>